<?xml version="1.0" standalone="no"?>
<!DOCTYPE svg PUBLIC "-//W3C//DTD SVG 20010904//EN"
 "http://www.w3.org/TR/2001/REC-SVG-20010904/DTD/svg10.dtd">
<svg version="1.0" xmlns="http://www.w3.org/2000/svg"
 width="944.000000pt" height="944.000000pt" viewBox="0 0 944.000000 944.000000"
 preserveAspectRatio="xMidYMid meet">
<metadata>
Created by potrace 1.14, written by Peter Selinger 2001-2017
</metadata>
<g transform="translate(0.000000,944.000000) scale(0.100000,-0.100000)"
fill="#000000" stroke="none">
<path d="M3076 8633 c-1 -1 -19 -3 -39 -5 -26 -1 -36 -6 -33 -15 3 -7 0 -13
-7 -13 -8 0 -7 -4 3 -10 13 -8 12 -10 -1 -15 -11 -4 -14 -15 -11 -37 3 -23 1
-29 -8 -23 -9 6 -9 3 0 -15 8 -15 8 -20 1 -16 -7 5 -11 -4 -11 -23 0 -18 -5
-31 -12 -31 -8 0 -9 -3 -3 -8 16 -12 15 -44 -1 -38 -12 5 -12 2 -3 -15 9 -17
8 -20 -2 -14 -9 6 -11 3 -6 -8 3 -9 1 -19 -5 -23 -7 -4 -6 -9 3 -15 9 -6 10
-9 2 -9 -6 0 -10 -11 -8 -25 1 -14 -1 -25 -5 -25 -4 0 -11 -7 -14 -16 -4 -10
-2 -13 7 -8 8 5 8 2 -2 -9 -7 -9 -11 -24 -7 -32 3 -9 2 -13 -4 -10 -6 3 -10 1
-10 -6 0 -7 -3 -9 -7 -6 -3 4 -13 1 -21 -6 -13 -10 -14 -9 -7 3 7 12 6 13 -6
4 -8 -6 -21 -12 -29 -12 -8 -1 -28 -4 -45 -7 -16 -3 -38 -7 -47 -8 -10 -1 -18
-4 -18 -7 0 -3 -11 -6 -25 -7 -14 -1 -36 -4 -49 -5 -16 -1 -22 -7 -18 -16 4
-12 1 -12 -16 -3 -14 7 -23 8 -27 1 -4 -6 -11 -8 -16 -5 -5 4 -9 2 -9 -4 0 -6
-7 -8 -15 -5 -8 4 -15 1 -15 -6 0 -7 -7 -10 -15 -6 -8 3 -15 1 -15 -5 0 -6 -4
-7 -10 -4 -5 3 -10 0 -10 -7 0 -9 -3 -9 -10 2 -7 11 -10 11 -10 2 0 -7 -4 -11
-9 -7 -5 3 -12 1 -16 -5 -4 -6 -11 -8 -16 -5 -5 4 -9 1 -9 -4 0 -13 -49 -14
-68 -2 -8 4 -13 12 -12 17 2 15 -32 54 -48 54 -8 0 -13 3 -9 6 3 3 -5 17 -19
31 -13 13 -22 28 -19 34 3 5 -1 6 -9 3 -11 -4 -16 0 -16 10 0 9 -8 16 -17 16
-9 0 -14 3 -10 6 8 9 -16 33 -27 26 -5 -3 -6 -1 -3 5 7 11 -57 83 -75 83 -6 0
-8 3 -5 7 4 3 -1 12 -11 20 -10 9 -11 12 -2 7 8 -4 12 -3 7 1 -13 14 -47 13
-47 -2 0 -8 -4 -11 -10 -8 -5 3 -10 1 -10 -5 0 -7 -7 -10 -15 -6 -8 3 -15 1
-15 -4 0 -5 -9 -12 -20 -15 -11 -4 -18 -11 -15 -16 3 -5 -1 -6 -9 -3 -9 3 -16
1 -16 -6 0 -6 -4 -9 -9 -6 -5 4 -11 2 -13 -3 -1 -5 -10 -11 -18 -13 -8 -2 -23
-12 -33 -23 -10 -11 -16 -14 -12 -7 3 6 2 12 -3 12 -6 0 -13 -7 -16 -16 -4 -9
-13 -14 -22 -10 -9 3 -12 2 -9 -5 4 -6 -2 -13 -14 -16 -12 -3 -21 -10 -21 -15
0 -5 -4 -6 -10 -3 -5 3 -10 1 -10 -6 0 -7 -3 -9 -6 -6 -4 3 -18 -2 -32 -13
-13 -11 -28 -18 -32 -15 -4 3 -10 -2 -14 -10 -3 -8 -11 -15 -18 -15 -8 0 -21
-9 -31 -20 -9 -11 -12 -20 -6 -20 6 0 9 -9 6 -20 -3 -11 -1 -20 5 -20 5 0 6
-5 2 -11 -3 -6 -1 -15 6 -19 7 -4 13 -22 14 -39 0 -17 4 -31 8 -31 5 0 8 -12
8 -26 0 -14 4 -23 9 -20 5 3 9 -6 9 -20 0 -15 4 -29 9 -33 5 -3 8 -13 8 -21 0
-8 4 -18 10 -22 6 -5 4 -8 -4 -8 -11 0 -9 -4 5 -15 13 -10 15 -14 5 -15 -11 0
-11 -3 2 -18 9 -10 18 -36 19 -59 2 -23 6 -39 11 -36 15 9 7 -15 -10 -28 -14
-12 -16 -12 -8 0 5 10 4 12 -3 7 -7 -4 -12 -14 -12 -23 0 -9 -3 -13 -6 -10 -4
4 -15 -3 -25 -15 -11 -11 -19 -18 -19 -15 0 4 -8 -1 -18 -10 -11 -10 -17 -21
-15 -24 3 -7 -27 -23 -39 -21 -4 1 -4 -6 -1 -16 3 -9 3 -14 -1 -10 -9 7 -56
-38 -82 -77 -9 -14 -20 -22 -25 -20 -4 3 -16 -7 -26 -22 -10 -15 -28 -37 -40
-48 -13 -11 -23 -26 -23 -33 0 -7 -5 -10 -10 -7 -6 3 -10 2 -10 -2 0 -5 -9
-14 -20 -21 -16 -10 -20 -10 -18 0 2 8 -6 13 -19 12 -13 -1 -23 3 -23 8 0 5
-4 7 -9 3 -5 -3 -12 -1 -16 4 -3 5 -14 8 -25 6 -11 -2 -20 0 -20 4 0 4 -7 8
-15 9 -8 1 -22 3 -30 4 -8 1 -15 4 -15 7 0 4 -12 8 -27 9 -15 1 -30 8 -35 15
-4 6 -8 8 -8 2 0 -5 -5 -4 -11 2 -6 6 -18 9 -25 6 -8 -3 -14 0 -14 6 0 6 -11
11 -25 11 -14 0 -25 4 -25 10 0 5 -7 7 -15 4 -9 -4 -15 0 -15 7 0 11 -3 11
-10 -1 -6 -9 -10 -10 -10 -3 0 7 -10 10 -26 7 -18 -3 -23 -1 -18 7 4 7 3 9 -4
6 -5 -4 -8 -16 -5 -27 3 -12 -1 -22 -11 -26 -9 -3 -16 -15 -16 -26 0 -10 -4
-17 -9 -14 -7 5 -19 -20 -19 -41 0 -3 -5 -9 -10 -12 -6 -3 -12 -13 -14 -21 -3
-16 -14 -31 -40 -61 -10 -10 -18 -20 -18 -21 -3 -21 -14 -47 -19 -44 -4 3 -8
-5 -8 -16 -1 -12 -6 -24 -10 -27 -4 -3 -15 -15 -23 -25 -13 -18 -13 -19 0 -12
11 6 11 4 -1 -6 -9 -7 -19 -23 -23 -36 -4 -12 -12 -19 -18 -16 -6 4 -8 3 -5
-2 3 -6 2 -16 -3 -24 -5 -8 -3 -19 6 -27 8 -8 11 -19 8 -25 -4 -6 -3 -8 2 -5
5 3 32 -14 59 -39 28 -24 54 -44 59 -44 5 0 7 -3 3 -6 -7 -7 46 -54 61 -54 6
0 14 -9 17 -20 3 -11 13 -20 21 -20 8 0 13 -4 10 -9 -3 -5 8 -14 24 -21 17 -7
30 -16 30 -21 0 -4 12 -20 26 -34 25 -25 25 -27 8 -40 -14 -11 -15 -14 -5 -15
11 0 10 -4 -5 -16 -10 -8 -13 -13 -7 -9 7 3 13 2 13 -4 0 -5 -4 -11 -9 -13 -5
-1 -11 -12 -13 -23 -1 -11 -10 -26 -18 -33 -13 -12 -13 -13 0 -6 13 7 13 5 1
-9 -7 -9 -10 -17 -6 -17 4 0 2 -7 -5 -15 -7 -8 -9 -15 -5 -15 4 0 3 -6 -2 -12
-6 -7 -9 -23 -8 -35 1 -13 -3 -23 -8 -23 -5 0 -7 -6 -4 -14 3 -7 1 -18 -4 -23
-6 -6 -11 -24 -11 -41 -1 -17 -4 -29 -8 -27 -9 6 -6 -27 5 -44 5 -10 4 -12 -3
-7 -8 5 -12 -1 -12 -14 0 -14 -4 -19 -13 -14 -9 6 -9 4 1 -7 14 -15 16 -43 2
-34 -6 3 -7 -1 -4 -9 3 -9 1 -16 -6 -16 -6 0 -8 -5 -4 -12 5 -8 0 -9 -14 -6
-12 4 -20 3 -17 -2 3 -4 -2 -10 -9 -13 -8 -3 -17 -1 -20 6 -3 9 -7 9 -13 1 -4
-7 -21 -14 -38 -15 -16 -2 -33 -8 -37 -14 -5 -6 -8 -5 -8 2 0 7 -7 10 -15 7
-8 -4 -12 -10 -9 -15 3 -5 0 -9 -5 -9 -6 0 -11 5 -11 11 0 6 -5 7 -12 2 -7 -4
-20 -9 -28 -11 -40 -9 -77 -15 -97 -16 -13 0 -23 -4 -23 -8 0 -4 -9 -5 -20 -3
-11 2 -20 0 -20 -5 0 -5 -9 -7 -20 -5 -11 2 -20 0 -20 -5 0 -5 -7 -7 -15 -4
-11 5 -13 2 -8 -12 4 -10 2 -15 -4 -11 -11 7 -11 -22 2 -42 5 -10 4 -12 -3 -7
-7 4 -12 3 -12 -3 0 -5 5 -13 10 -16 7 -4 6 -13 -1 -26 -7 -14 -7 -24 0 -33 6
-7 8 -16 4 -19 -11 -12 -13 -58 -1 -51 6 4 5 -3 -2 -15 -8 -16 -8 -26 -1 -35
6 -7 8 -16 4 -19 -11 -12 -13 -58 -1 -51 6 4 7 0 1 -12 -5 -11 -8 -59 -8 -109
1 -82 3 -90 21 -90 10 0 24 -4 31 -8 6 -4 15 -3 18 3 5 8 11 7 22 -1 8 -7 26
-13 41 -14 15 -1 38 -7 51 -14 19 -11 22 -11 15 1 -6 10 -5 11 7 2 8 -5 21
-10 29 -9 8 0 17 -3 20 -7 3 -4 21 -8 40 -9 19 -2 41 -7 49 -13 12 -9 13 -8 6
4 -7 12 -6 13 6 3 8 -6 26 -13 39 -15 14 -2 30 -7 37 -11 6 -4 14 -1 16 5 4
10 6 10 6 1 1 -7 7 -13 15 -13 9 0 13 -9 11 -25 -1 -14 1 -25 4 -25 3 0 7 -12
8 -27 2 -36 6 -55 17 -72 7 -11 6 -12 -5 -6 -11 7 -11 5 1 -10 8 -10 14 -20
13 -22 -2 -1 -3 -11 -3 -20 0 -15 2 -16 10 -3 5 8 10 10 10 5 0 -6 -5 -16 -12
-23 -9 -9 -9 -12 0 -12 7 0 12 -13 12 -28 0 -15 6 -34 13 -41 10 -11 9 -12 -2
-6 -8 5 -4 -7 9 -25 13 -18 19 -31 14 -27 -7 4 -7 -5 0 -28 6 -19 15 -35 19
-35 5 0 6 -4 2 -9 -3 -5 -1 -12 4 -16 6 -3 7 -13 4 -21 -3 -9 0 -20 7 -24 13
-8 22 -49 11 -48 -17 2 -34 -3 -29 -8 7 -7 -44 -60 -55 -56 -4 1 -10 -5 -13
-13 -3 -8 -10 -12 -15 -9 -5 3 -9 -2 -9 -10 0 -9 -5 -16 -11 -16 -5 0 -7 -5
-3 -12 4 -7 3 -8 -5 -4 -6 4 -14 0 -17 -8 -3 -9 -12 -16 -20 -16 -7 0 -18 -9
-24 -20 -6 -11 -15 -18 -21 -15 -8 6 -13 -8 -10 -28 1 -5 -3 -6 -9 -2 -5 3
-10 1 -10 -4 0 -6 -5 -11 -12 -11 -6 0 -29 -19 -50 -41 -28 -30 -36 -45 -28
-54 5 -6 7 -15 3 -18 -3 -4 -1 -7 5 -7 7 0 12 -6 12 -14 0 -8 7 -17 15 -20 9
-3 15 -14 13 -23 -2 -11 2 -17 10 -15 8 1 11 -2 8 -6 -3 -5 3 -17 14 -27 10
-9 16 -23 13 -31 -3 -8 0 -14 7 -14 6 0 8 -4 5 -10 -3 -5 -1 -10 4 -10 6 0 11
-7 11 -15 0 -8 5 -15 11 -15 5 0 7 -4 4 -10 -3 -6 -1 -10 6 -10 7 0 10 -3 6
-6 -3 -4 1 -13 9 -21 8 -8 12 -18 9 -23 -3 -4 2 -11 11 -14 8 -3 12 -10 9 -16
-3 -5 -1 -10 4 -10 6 0 11 -7 11 -16 0 -9 5 -12 11 -8 7 4 10 1 7 -7 -3 -8 2
-20 11 -27 13 -11 13 -12 1 -6 -8 4 -2 -7 15 -25 16 -18 31 -28 33 -23 2 6 12
7 24 4 14 -3 19 -1 14 6 -4 7 1 10 14 7 11 -2 24 3 30 13 6 12 9 13 10 3 0
-11 3 -11 15 -1 8 7 15 9 15 4 0 -5 5 -2 10 6 9 13 10 13 10 0 1 -13 2 -13 13
0 7 8 18 16 25 18 7 1 23 4 35 6 12 3 23 5 25 7 1 1 7 3 12 4 6 1 12 4 15 5 3
1 10 4 15 5 6 1 13 4 18 5 4 1 12 3 17 4 6 1 27 10 48 19 21 10 42 15 47 12 6
-4 10 -1 10 4 0 6 8 11 17 11 9 0 13 -3 10 -6 -3 -4 7 -19 23 -34 17 -16 30
-32 30 -38 0 -5 7 -13 16 -16 9 -3 12 -11 8 -18 -4 -7 -4 -10 1 -6 4 4 16 -2
26 -13 16 -19 19 -20 25 -5 3 9 4 25 1 36 -3 11 -2 20 1 20 4 0 5 36 2 80 -3
44 -3 80 0 80 6 0 3 197 -4 223 -2 9 1 17 6 17 6 0 5 6 -2 15 -7 8 -8 15 -3
15 5 0 10 7 10 15 0 8 -5 15 -11 15 -6 0 -4 5 4 10 11 7 11 10 2 10 -7 0 -10
4 -7 10 11 17 11 90 0 94 -5 2 -4 5 3 5 9 1 10 6 3 19 -5 10 -6 24 -1 31 7 13
-17 72 -33 79 -4 2 -5 8 -1 13 3 5 -1 12 -10 15 -8 3 -12 12 -9 20 3 8 -1 14
-8 14 -11 0 -11 3 1 10 13 8 13 10 -1 10 -9 0 -19 9 -22 20 -3 11 -1 18 4 14
14 -8 10 3 -7 20 -8 9 -16 25 -17 36 -1 11 -5 20 -10 20 -4 0 -6 4 -2 9 3 5 1
12 -4 15 -5 4 -8 17 -7 31 2 13 -1 22 -5 19 -5 -3 -9 6 -9 20 0 13 -5 26 -10
28 -6 2 -12 19 -14 38 -2 19 -7 43 -11 52 -4 10 -8 29 -9 43 0 14 -4 25 -8 25
-5 0 -7 3 -7 8 4 26 -3 72 -10 68 -5 -4 -7 3 -4 15 4 12 0 25 -8 30 -8 5 -9 9
-3 9 6 0 10 15 10 34 -1 19 -4 32 -7 30 -12 -7 -18 23 -6 35 8 8 8 11 -1 11
-10 0 -10 5 -2 20 6 11 7 20 2 20 -5 0 -8 15 -8 33 1 17 -3 35 -8 39 -8 5 -7
8 1 8 10 0 9 47 -2 58 -2 2 0 15 5 27 6 16 5 25 -3 29 -7 2 -8 5 -1 5 6 1 10
19 8 46 -2 30 1 43 8 39 7 -4 7 0 -1 13 -7 14 -7 23 1 31 8 8 8 15 -2 27 -9
11 -9 15 -1 15 7 0 10 3 8 8 -3 4 -1 16 3 27 4 11 4 32 -1 47 -6 21 -4 26 7
21 17 -6 18 1 3 29 -9 16 -8 19 2 13 9 -6 11 -2 7 13 -4 12 -2 22 2 22 5 0 7
9 5 20 -2 11 -1 20 3 20 4 0 9 14 10 32 2 17 8 38 15 47 9 12 9 13 0 7 -9 -5
-11 -2 -7 8 3 9 10 16 15 16 5 0 9 5 9 11 0 5 -4 7 -10 4 -5 -3 -10 -1 -10 4
0 6 4 11 9 11 5 0 12 7 15 16 4 10 2 13 -7 8 -6 -4 -3 2 7 14 12 14 14 22 7
22 -9 0 -8 5 3 15 8 9 12 23 9 32 -4 11 -3 14 5 9 8 -5 12 0 12 14 0 12 4 19
8 16 4 -2 8 3 9 12 2 32 9 50 23 68 8 10 10 15 3 11 -8 -5 -8 -1 0 18 7 14 15
25 20 25 4 0 7 9 7 20 0 11 9 29 19 39 14 14 16 21 8 25 -9 3 -9 5 1 5 6 1 12
8 12 16 0 8 5 15 11 15 5 0 7 5 4 10 -3 6 -1 10 5 10 6 0 8 5 5 10 -3 6 -1 10
4 10 6 0 11 7 11 15 0 8 4 15 9 15 10 0 27 39 23 53 -1 4 5 7 14 7 8 0 12 5 9
10 -3 6 -1 10 6 10 7 0 10 3 6 6 -3 3 2 14 11 25 9 11 16 22 15 24 -4 8 41 50
50 47 4 -1 6 1 6 5 -4 22 4 35 38 68 20 19 33 35 29 35 -5 0 8 14 28 32 19 17
33 36 29 41 -3 6 -1 7 4 4 6 -4 14 0 17 9 3 8 10 12 16 9 5 -3 10 1 10 9 0 9
5 16 11 16 5 0 7 5 4 10 -4 6 -3 9 2 8 4 -1 26 16 48 38 22 22 48 44 58 47 10
4 15 12 12 17 -4 6 -3 10 2 9 20 -3 34 2 28 11 -6 9 8 14 28 11 5 -1 6 3 2 9
-6 10 63 57 78 52 5 -1 6 2 2 8 -3 5 2 13 12 17 10 3 28 15 40 26 12 10 26 16
32 13 5 -4 16 2 23 11 7 10 25 24 41 32 15 8 27 18 27 22 0 4 9 6 20 4 11 -2
18 0 15 6 -6 8 8 13 28 10 4 0 7 3 7 8 0 8 37 24 53 22 4 -1 7 4 7 9 0 6 7 10
15 10 8 0 15 5 15 11 0 5 4 8 9 4 5 -3 17 2 25 11 12 11 16 12 16 2 0 -10 3
-9 10 2 5 8 10 11 10 5 0 -5 4 -4 8 2 5 7 20 14 34 15 15 1 24 6 22 10 -3 4 3
8 13 8 11 0 25 6 32 13 11 10 13 9 7 -3 -4 -8 -1 -7 7 3 11 13 17 15 22 7 6
-9 10 -9 16 1 4 7 20 14 34 15 15 0 30 6 33 11 7 10 134 36 180 37 12 0 22 3
22 7 0 4 14 6 30 5 17 -1 30 0 30 3 0 3 18 6 40 5 21 0 37 3 34 8 -3 4 -1 8 5
8 5 0 11 -5 13 -12 3 -7 9 -8 19 -3 8 5 23 10 34 10 11 0 26 4 33 8 6 5 12 5
12 0 0 -10 152 -9 169 1 6 4 11 3 11 -1 0 -5 30 -8 68 -7 37 1 87 -3 112 -8
25 -6 78 -12 118 -13 43 -2 80 -8 90 -16 32 -26 62 -40 62 -28 0 6 7 3 16 -5
19 -19 28 -21 18 -3 -5 8 -2 7 9 -2 10 -8 20 -11 24 -7 4 3 18 -4 31 -16 14
-13 22 -17 18 -10 -4 6 -2 12 3 12 6 0 11 -5 11 -12 0 -6 3 -8 7 -5 3 4 17 0
31 -9 13 -9 22 -12 18 -6 -3 6 4 5 19 -1 14 -7 25 -15 25 -19 0 -5 9 -8 20 -8
11 0 20 -4 20 -10 0 -5 5 -10 11 -10 5 0 7 6 4 13 -4 6 0 4 8 -6 11 -14 16
-15 20 -5 3 8 6 6 6 -5 1 -10 5 -16 10 -12 5 3 17 -2 26 -11 9 -9 19 -14 22
-11 3 3 12 -1 20 -9 8 -8 19 -12 24 -9 5 4 9 -1 9 -9 0 -10 9 -16 23 -16 12 0
28 -9 35 -21 7 -12 16 -18 19 -15 3 3 14 1 24 -5 17 -8 19 -6 19 21 0 20 4 29
11 24 7 -4 9 0 5 14 -4 11 -2 23 4 27 8 5 8 11 -1 21 -7 8 -7 14 -1 14 5 0 13
7 16 16 3 8 2 12 -3 9 -5 -3 -3 8 5 24 13 27 44 50 44 33 0 -8 83 -7 105 2 8
3 15 0 15 -7 0 -8 4 -6 10 3 5 8 10 10 10 4 0 -6 7 -11 15 -11 8 0 15 5 15 10
0 5 7 4 15 -3 9 -7 15 -8 15 -2 0 5 8 8 18 6 35 -8 142 -9 142 -2 0 4 6 5 14
2 8 -3 17 0 22 7 5 8 3 10 -7 4 -11 -7 -12 -6 -2 6 12 15 13 19 13 45 0 8 4
13 8 10 4 -3 7 8 6 25 -1 16 2 29 8 29 5 0 7 4 4 9 -4 5 -2 11 4 13 5 1 11 19
13 38 2 19 9 36 16 38 6 2 8 8 5 13 -3 6 -1 15 4 22 6 7 13 26 15 42 3 18 10
29 17 27 11 -3 11 0 0 12 -8 10 -9 16 -2 16 6 0 9 7 6 15 -4 8 -2 15 3 15 5 0
10 18 12 41 1 26 -2 38 -9 34 -5 -3 -10 -3 -10 2 -1 10 -80 59 -91 55 -5 -1
-9 3 -9 10 0 6 -3 9 -6 5 -3 -3 -15 3 -27 13 -11 11 -24 17 -29 14 -4 -3 -8 0
-8 6 0 7 -7 10 -15 6 -8 -3 -14 0 -12 7 1 7 -4 11 -10 9 -7 -1 -13 2 -13 8 0
6 -6 9 -12 8 -7 -2 -11 4 -10 12 2 8 0 12 -3 8 -4 -4 -17 -2 -29 4 -11 7 -24
11 -28 10 -5 -1 -8 3 -8 8 0 6 -7 10 -15 10 -8 0 -15 5 -15 10 0 6 -9 10 -20
10 -11 0 -20 5 -20 10 0 6 -7 10 -15 10 -8 0 -15 5 -15 10 0 6 -9 10 -20 10
-24 0 -92 -69 -83 -83 4 -6 0 -8 -10 -4 -9 3 -18 0 -21 -9 -4 -10 -2 -12 6 -8
7 4 8 3 4 -4 -4 -7 -14 -12 -22 -12 -8 0 -14 -5 -14 -11 0 -5 -5 -7 -10 -4 -6
4 -9 3 -8 -2 4 -14 -23 -54 -33 -48 -5 4 -8 2 -7 -2 2 -5 -10 -23 -27 -41 -16
-17 -46 -49 -65 -71 -35 -40 -63 -51 -76 -30 -4 8 -9 7 -15 -2 -7 -11 -9 -10
-9 4 0 10 -4 16 -10 12 -5 -3 -19 0 -32 6 -51 27 -57 28 -61 16 -4 -9 -6 -9
-6 1 -1 6 -10 12 -21 12 -11 0 -20 4 -20 8 0 4 -9 8 -20 9 -12 1 -18 -3 -14
-8 3 -6 -3 -5 -15 3 -12 7 -21 17 -21 23 0 5 -5 3 -10 -5 -5 -8 -10 -10 -10
-4 0 11 -6 12 -55 15 -14 1 -25 5 -25 9 0 11 -119 9 -126 -2 -10 -16 -34 13
-34 41 0 15 -5 32 -12 39 -9 9 -9 12 1 12 9 0 9 5 -2 21 -8 11 -13 29 -10 40
3 10 1 19 -4 19 -6 0 -10 12 -10 28 -1 44 -7 72 -16 72 -4 0 -5 5 -2 10 3 6 1
10 -4 10 -6 0 -11 5 -11 11 0 5 5 7 11 3 8 -5 8 -1 0 13 -6 11 -7 23 -4 27 3
3 1 6 -5 6 -6 0 -9 6 -6 14 3 8 0 17 -6 21 -9 6 -9 10 1 16 10 6 10 9 2 9 -7
0 -10 7 -6 17 5 12 3 14 -8 8 -11 -7 -12 -6 -2 7 7 8 9 18 5 22 -4 4 -8 12 -8
17 -1 5 -2 11 -3 13 0 3 -15 1 -31 -4 -19 -5 -28 -5 -25 1 4 5 5 9 3 9 -2 0
-18 -4 -36 -9 -18 -6 -30 -7 -28 -3 3 6 -352 11 -358 5z"/>
<path d="M3250 7611 c0 -3 -21 -5 -47 -4 -27 0 -54 -3 -60 -9 -9 -7 -13 -7
-13 1 0 9 -5 9 -20 1 -15 -8 -20 -8 -20 1 0 8 -4 8 -15 -1 -12 -10 -15 -10
-15 1 0 10 -3 10 -8 3 -4 -7 -26 -14 -50 -18 -24 -3 -47 -8 -53 -11 -5 -4 -9
0 -9 7 0 10 -2 10 -8 1 -5 -7 -20 -14 -35 -15 -15 -1 -27 -5 -27 -8 0 -3 -14
-6 -31 -7 -17 -1 -38 -8 -47 -15 -13 -11 -14 -11 -7 2 8 13 6 13 -8 2 -9 -8
-21 -11 -27 -7 -5 3 -10 1 -10 -6 0 -7 -3 -10 -6 -6 -4 3 -18 0 -33 -7 -14 -7
-31 -11 -38 -9 -6 2 -14 0 -17 -6 -4 -6 -13 -8 -22 -4 -9 3 -14 0 -12 -8 2 -9
-6 -14 -24 -13 -16 0 -28 -4 -28 -8 0 -4 -8 -8 -19 -8 -10 0 -24 -7 -31 -15
-7 -8 -16 -12 -21 -9 -5 3 -9 0 -9 -6 0 -6 -4 -9 -9 -5 -6 3 -14 -3 -20 -12
-5 -10 -12 -17 -15 -15 -17 7 -36 1 -30 -10 5 -8 2 -9 -10 -5 -10 4 -19 1 -22
-8 -3 -7 -12 -11 -20 -8 -8 3 -14 0 -14 -7 0 -6 -4 -8 -10 -5 -5 3 -10 -2 -10
-11 0 -10 -3 -14 -6 -11 -8 8 -64 -24 -64 -36 0 -4 -4 -6 -9 -3 -5 3 -12 -1
-15 -10 -4 -9 -9 -14 -12 -11 -4 3 -11 2 -18 -4 -6 -5 -28 -22 -48 -38 -21
-15 -34 -31 -30 -35 3 -4 -2 -4 -12 0 -14 5 -17 4 -12 -4 4 -7 1 -12 -7 -12
-8 0 -18 -7 -21 -16 -3 -8 -10 -13 -15 -9 -5 3 -13 -4 -16 -16 -4 -11 -9 -18
-12 -16 -6 7 -163 -151 -163 -164 0 -5 -7 -9 -16 -9 -10 0 -14 -6 -10 -15 3
-9 0 -15 -9 -15 -8 0 -15 -3 -15 -7 0 -5 -11 -21 -25 -37 -14 -16 -25 -33 -25
-38 0 -5 -4 -7 -9 -3 -6 3 -8 -4 -6 -15 2 -11 0 -18 -4 -15 -5 2 -15 -3 -22
-12 -12 -14 -12 -16 1 -8 8 4 6 -2 -5 -13 -35 -37 -46 -52 -38 -52 4 0 0 -5
-10 -11 -9 -6 -15 -14 -12 -20 4 -5 1 -9 -6 -9 -7 0 -10 -3 -6 -6 3 -4 -7 -26
-24 -50 -16 -24 -28 -49 -27 -56 2 -7 -3 -12 -10 -10 -8 1 -11 -2 -7 -8 3 -5
-4 -24 -16 -42 -14 -18 -17 -28 -8 -24 11 6 11 5 -1 -6 -15 -13 -22 -31 -23
-55 0 -7 -7 -15 -14 -17 -8 -3 -11 -11 -8 -16 4 -6 1 -17 -5 -25 -6 -8 -9 -19
-5 -25 3 -5 1 -10 -5 -10 -6 0 -9 -4 -5 -9 3 -5 1 -12 -5 -16 -6 -4 -8 -11 -5
-16 4 -5 2 -9 -3 -9 -10 0 -11 -8 -15 -62 -1 -20 -6 -36 -11 -35 -10 2 -16
-23 -18 -75 -1 -21 -6 -38 -11 -38 -5 0 -7 -11 -5 -25 3 -14 1 -25 -5 -25 -6
0 -7 -3 -4 -6 3 -4 2 -16 -4 -27 -8 -15 -8 -18 1 -12 9 6 9 2 1 -14 -9 -16 -9
-21 1 -21 9 0 9 -3 -2 -10 -8 -5 -11 -12 -8 -16 4 -4 3 -15 -3 -25 -5 -11 -6
-19 -1 -19 4 0 8 -9 8 -19 0 -11 -4 -17 -9 -14 -5 3 -7 0 -5 -8 3 -8 1 -24 -3
-36 -5 -13 -5 -23 0 -23 11 0 9 -19 -3 -39 -5 -8 -4 -16 5 -21 9 -6 10 -12 2
-22 -6 -7 -7 -22 -3 -33 4 -11 4 -34 0 -52 -5 -18 -4 -31 0 -28 11 7 17 -72 7
-90 -6 -11 -3 -15 10 -16 10 0 13 -3 6 -6 -9 -3 -10 -10 -3 -24 8 -14 7 -19
-2 -19 -9 0 -9 -3 2 -10 8 -5 11 -10 5 -10 -5 0 -3 -5 5 -10 12 -8 12 -10 1
-10 -11 0 -11 -4 2 -18 13 -14 14 -21 4 -31 -9 -9 -9 -14 2 -20 7 -5 11 -13 7
-19 -3 -6 0 -13 6 -15 10 -4 10 -6 -1 -6 -10 -1 -10 -7 4 -27 11 -18 13 -24 4
-19 -11 6 -12 5 -1 -6 6 -7 12 -21 12 -31 0 -10 5 -18 11 -18 6 0 8 -8 4 -19
-3 -11 1 -26 10 -35 12 -12 13 -16 3 -16 -11 0 -11 -2 0 -9 8 -4 13 -11 12
-15 -2 -7 13 -51 35 -101 8 -16 11 -33 8 -39 -3 -5 -1 -6 5 -2 8 5 12 -1 12
-14 0 -12 4 -19 8 -16 4 2 9 -5 9 -17 1 -12 7 -23 13 -25 5 -2 8 -7 5 -12 -2
-4 4 -18 15 -30 23 -27 25 -34 8 -25 -7 4 0 -5 15 -19 28 -26 75 -37 61 -14
-5 7 -3 8 7 2 19 -11 39 -14 39 -5 0 8 8 9 55 12 13 1 23 5 20 9 -2 4 6 6 20
5 32 -4 55 23 34 39 -9 6 -14 17 -12 24 3 6 0 12 -6 12 -6 0 -11 7 -11 16 0 8
-4 13 -8 10 -5 -3 -9 1 -10 9 -1 8 -3 22 -4 30 -1 8 -5 12 -10 9 -4 -3 -9 0
-9 5 -1 6 -2 17 -3 24 -1 6 -7 11 -13 10 -7 -2 -10 6 -8 17 2 11 0 20 -6 20
-5 0 -9 11 -9 25 0 14 -5 25 -11 25 -6 0 -9 9 -6 20 3 11 1 18 -4 14 -5 -3 -9
2 -9 11 0 9 -5 13 -10 10 -5 -3 -10 -1 -10 4 0 6 6 11 13 11 8 0 8 3 -2 9 -8
5 -11 16 -8 26 5 10 3 14 -5 9 -7 -5 -9 0 -6 14 4 13 0 23 -9 26 -8 4 -13 13
-9 21 3 8 0 15 -7 15 -8 0 -6 4 3 10 11 7 11 10 2 10 -7 0 -10 5 -7 10 3 6 2
10 -2 10 -5 0 -10 11 -11 25 -3 47 -5 55 -15 55 -5 0 -4 7 3 15 7 9 8 15 2 15
-5 0 -9 15 -8 34 1 19 -2 32 -5 30 -4 -2 -9 3 -13 11 -3 8 -1 15 5 15 6 0 6 6
0 18 -7 13 -6 23 1 30 8 8 8 12 2 12 -6 0 -11 42 -13 107 -1 59 -5 111 -7 115
-3 4 1 8 8 8 9 0 9 3 -2 10 -12 8 -12 10 -1 10 11 0 11 3 1 15 -10 12 -10 15
0 15 7 0 10 7 7 15 -4 8 -2 17 3 20 7 4 6 13 0 26 -8 14 -7 19 1 19 6 0 9 9 6
20 -3 11 0 20 6 20 7 0 5 5 -3 10 -8 5 -10 10 -4 10 6 0 10 11 9 25 -2 14 1
25 5 25 5 0 7 9 5 20 -2 11 1 20 6 20 6 0 5 8 -2 21 -7 13 -7 19 -1 15 12 -7
26 29 17 44 -3 5 -1 10 5 10 7 0 10 7 6 15 -3 8 -1 15 4 15 6 0 10 10 10 23 0
12 8 39 19 60 10 20 14 34 7 30 -6 -4 -5 1 3 10 7 9 10 17 7 17 -4 0 0 7 8 16
9 8 16 26 16 40 0 13 4 24 9 24 6 0 8 9 6 20 -2 11 1 19 8 17 6 -1 13 7 15 18
2 11 10 25 19 32 8 6 14 14 15 17 0 20 12 46 20 46 5 0 7 4 4 9 -3 5 1 12 10
15 9 4 14 9 11 13 -4 3 1 12 11 20 11 10 12 12 2 8 -12 -5 -12 -4 1 7 8 7 18
21 22 31 3 9 11 17 17 17 6 0 8 5 4 12 -5 7 -2 9 9 5 10 -4 14 -2 12 6 -3 7
13 31 35 55 22 24 40 50 40 58 0 8 5 12 10 9 6 -3 14 4 19 17 6 13 10 20 10
16 1 -5 10 1 21 12 11 11 19 22 18 25 -4 7 36 34 43 29 4 -2 10 3 13 12 4 10
2 13 -6 8 -7 -4 -8 -3 -4 4 4 7 13 12 19 12 7 0 18 9 25 20 7 11 18 20 26 20
8 0 16 7 20 15 3 8 17 20 31 25 14 5 25 15 25 21 0 7 3 9 7 6 3 -4 12 2 20 13
8 11 21 20 29 20 8 0 14 5 14 10 0 6 7 10 16 10 8 0 13 4 9 9 -3 6 4 8 15 6
13 -2 20 1 20 11 0 8 9 14 20 14 11 0 20 5 20 10 0 6 7 10 15 10 8 0 15 3 15
8 0 4 11 12 25 19 19 8 23 8 19 0 -4 -7 3 -2 15 11 24 24 36 29 26 10 -4 -7 1
-4 9 6 9 11 16 16 16 12 0 -5 6 -3 13 3 8 6 17 8 20 4 4 -3 7 -1 7 6 0 7 4 10
9 6 5 -3 12 -1 16 5 4 6 11 8 16 5 5 -4 9 -1 9 5 0 6 4 9 9 5 6 -3 16 1 23 8
7 8 21 12 31 9 11 -3 23 1 28 10 5 8 20 13 38 12 17 -1 31 2 31 6 0 5 9 7 20
5 11 -2 20 1 20 7 0 6 6 5 16 -2 8 -8 14 -9 13 -4 -4 21 2 24 22 13 15 -8 19
-8 15 0 -5 7 3 11 18 12 26 2 44 5 49 9 4 4 61 9 107 11 25 0 51 5 57 11 9 7
13 7 13 -2 0 -9 4 -9 13 -2 6 5 21 6 32 2 11 -4 28 -3 39 2 13 7 21 6 26 -2 5
-8 13 -9 21 -4 20 12 39 14 39 3 0 -5 11 -4 25 1 17 7 25 6 25 -1 0 -7 11 -9
25 -7 13 3 26 0 29 -6 3 -7 5 -6 5 2 1 10 6 10 21 2 11 -6 20 -7 20 -3 0 4 5
2 12 -5 7 -7 17 -8 28 -2 12 7 21 5 29 -4 6 -7 22 -11 35 -9 13 3 27 0 31 -7
5 -8 11 -8 23 2 13 11 14 11 7 -1 -6 -11 -4 -13 8 -8 10 3 17 2 17 -3 0 -5 7
-6 17 -3 12 5 14 3 8 -8 -6 -11 -5 -12 5 -2 11 10 16 9 27 -5 9 -10 12 -11 7
-2 -7 13 -5 13 9 1 9 -7 17 -10 17 -6 0 4 7 2 15 -5 8 -7 15 -9 15 -5 0 4 12
0 26 -10 15 -9 24 -12 20 -7 -3 6 14 0 40 -14 25 -13 50 -22 55 -19 5 4 9 1 9
-4 0 -6 5 -11 12 -11 6 0 20 -8 31 -17 11 -10 17 -12 13 -5 -10 17 -2 15 24
-8 12 -11 27 -17 31 -14 5 3 9 0 9 -5 0 -6 7 -11 15 -11 8 0 15 -4 15 -10 0
-5 7 -10 15 -10 8 0 15 -5 15 -11 0 -5 4 -8 9 -5 4 3 16 0 26 -8 13 -9 27 -10
56 -2 22 5 39 14 39 19 0 4 5 5 10 2 6 -4 10 10 10 34 0 23 4 41 8 41 5 0 9
20 11 45 1 35 -2 45 -14 45 -8 0 -15 5 -15 10 0 6 -9 10 -21 10 -11 0 -17 5
-14 10 3 6 -1 10 -9 10 -8 0 -19 6 -23 13 -4 6 -12 12 -18 13 -23 3 -55 17
-55 25 0 5 -7 5 -17 2 -9 -4 -14 -2 -10 3 3 5 -6 14 -19 21 -13 6 -21 7 -18 1
3 -5 -3 -4 -14 3 -12 7 -18 17 -15 22 3 5 -4 6 -16 2 -12 -4 -21 -2 -21 4 0 6
-12 11 -26 11 -14 0 -23 4 -20 9 3 5 -6 9 -21 9 -15 0 -29 5 -31 11 -2 6 -8 9
-13 5 -5 -3 -9 0 -9 5 0 6 -5 11 -11 11 -5 0 -7 -6 -3 -12 4 -7 -2 -5 -13 5
-16 14 -22 15 -26 5 -4 -10 -6 -10 -6 0 -1 6 -10 12 -21 12 -11 0 -20 3 -20 8
0 4 -14 8 -31 8 -17 1 -34 6 -38 10 -3 5 -24 11 -46 12 -22 2 -42 8 -43 13 -2
6 -10 5 -18 -2 -11 -9 -14 -9 -14 0 0 7 -5 9 -10 6 -6 -4 -17 -1 -25 5 -9 8
-15 8 -15 2 0 -5 -9 -8 -20 -5 -11 3 -20 10 -20 15 0 6 -7 5 -15 -2 -12 -10
-15 -10 -15 0 0 10 -3 10 -15 0 -12 -10 -15 -10 -15 1 0 11 -2 11 -10 -1 -5
-8 -10 -10 -10 -4 0 6 -23 11 -52 13 -28 1 -55 4 -60 7 -4 3 -8 1 -8 -4 0 -5
-17 -6 -40 -2 -22 4 -40 5 -40 1z"/>
<path d="M4454 7338 c-4 -5 -13 -7 -21 -4 -12 5 -14 1 -10 -14 3 -11 2 -22 -3
-25 -4 -2 -8 -15 -8 -27 -1 -21 -7 -55 -12 -68 -1 -3 -2 -8 -1 -12 0 -5 -5 -8
-11 -8 -9 0 -8 -4 2 -10 10 -6 11 -10 3 -10 -7 0 -13 -5 -13 -11 0 -5 6 -7 13
-3 8 6 8 3 -1 -9 -8 -9 -15 -26 -17 -39 -4 -38 -9 -53 -20 -60 -6 -5 -5 -8 3
-8 10 0 10 -5 2 -20 -6 -11 -7 -20 -3 -20 4 0 1 -5 -7 -10 -9 -6 -11 -10 -3
-10 7 0 10 -7 7 -15 -4 -8 -9 -13 -14 -10 -4 2 -5 -7 -2 -20 2 -15 0 -25 -7
-25 -6 0 -11 -5 -11 -11 0 -5 5 -7 10 -4 16 10 11 -1 -7 -16 -11 -10 -14 -10
-9 -1 4 6 2 12 -3 12 -6 0 -11 -4 -11 -8 0 -5 -10 -8 -22 -7 -13 2 -33 -4 -45
-11 -20 -13 -22 -12 -17 3 5 15 3 15 -10 -1 -9 -12 -16 -15 -16 -7 0 9 -5 8
-16 -3 -19 -19 -28 -21 -18 -3 5 8 2 8 -9 -2 -9 -7 -17 -10 -17 -6 0 4 -8 1
-17 -6 -14 -12 -15 -12 -9 -1 7 12 4 12 -13 2 -12 -6 -32 -14 -44 -16 -12 -3
-26 -6 -32 -8 -5 -2 -23 -6 -40 -10 -16 -4 -42 -14 -57 -22 -16 -8 -28 -12
-28 -8 0 3 -7 1 -15 -6 -12 -10 -15 -10 -15 1 0 9 -3 10 -8 4 -12 -17 -52 -36
-52 -25 0 5 -3 9 -7 9 -5 -1 -15 -1 -23 0 -13 1 -13 2 0 11 13 8 12 10 -2 10
-10 0 -18 4 -18 10 0 15 -33 50 -47 50 -6 0 -15 5 -19 12 -5 7 -2 9 7 4 8 -4
1 5 -16 19 -16 15 -23 24 -15 19 13 -7 13 -5 1 9 -7 9 -17 14 -22 11 -5 -3 -9
2 -9 11 0 9 -4 13 -10 10 -5 -3 -10 0 -10 7 0 8 -9 20 -19 28 -11 7 -18 17
-15 22 3 4 -1 8 -9 8 -8 0 -17 9 -20 21 -4 13 -10 18 -18 13 -8 -5 -10 -3 -5
5 5 8 0 14 -13 18 -11 3 -18 9 -15 14 3 5 -2 9 -10 9 -9 0 -16 6 -16 13 0 8
-4 7 -10 -3 -5 -8 -10 -11 -10 -7 0 5 -7 1 -16 -7 -8 -9 -22 -16 -30 -16 -8 0
-14 -4 -14 -9 0 -9 -39 -24 -55 -21 -5 1 -7 -2 -3 -6 9 -8 -32 -40 -46 -36 -4
1 -14 -5 -22 -15 -10 -13 -13 -14 -14 -4 0 8 -10 2 -26 -15 -15 -16 -23 -22
-18 -14 5 10 0 8 -14 -4 -12 -11 -22 -16 -22 -12 0 4 -6 1 -14 -6 -8 -7 -11
-17 -8 -23 3 -5 -2 -4 -11 4 -15 12 -17 11 -17 -3 0 -10 -4 -14 -10 -11 -5 3
-10 1 -10 -5 0 -6 -4 -9 -9 -5 -6 3 -25 -8 -44 -25 -19 -16 -38 -26 -42 -22
-4 4 -2 -3 4 -15 6 -13 9 -23 5 -23 -4 0 1 -10 12 -22 10 -12 13 -18 7 -14
-14 8 -18 -6 -5 -18 4 -4 7 -13 7 -19 1 -7 5 -11 11 -10 6 1 9 -12 8 -28 -1
-16 1 -29 5 -29 4 0 8 -12 9 -27 1 -16 7 -30 12 -31 6 -2 7 -8 4 -13 -3 -6 1
-21 10 -34 11 -17 13 -26 4 -31 -7 -5 -5 -11 7 -21 14 -9 15 -13 5 -13 -9 0
-6 -6 8 -16 12 -8 20 -20 16 -25 -3 -5 -2 -15 3 -22 4 -7 8 -19 7 -27 -1 -8
-2 -21 -3 -28 0 -7 -6 -10 -13 -6 -8 5 -9 2 -5 -10 4 -10 3 -15 -3 -11 -6 3
-13 -1 -16 -9 -3 -9 -10 -14 -15 -11 -4 3 -13 -4 -19 -15 -6 -11 -15 -18 -21
-15 -5 4 -9 1 -9 -5 0 -6 -4 -8 -10 -5 -5 3 -7 0 -4 -8 3 -8 -3 -20 -12 -28
-15 -12 -17 -12 -9 0 5 10 4 12 -3 7 -7 -4 -12 -14 -12 -23 0 -9 -6 -13 -14
-10 -8 3 -13 -1 -12 -11 0 -9 -10 -22 -24 -29 -14 -7 -22 -13 -18 -13 12 0
-39 -50 -51 -50 -7 0 -10 -4 -7 -8 3 -5 -6 -15 -19 -22 -13 -7 -22 -17 -19
-21 4 -7 -54 -74 -66 -74 -3 0 -4 -4 -2 -9 2 -5 -4 -3 -13 4 -8 7 -18 10 -21
7 -4 -3 -13 0 -20 8 -8 8 -21 12 -29 9 -8 -4 -15 -2 -15 3 0 9 -6 11 -47 15
-10 0 -21 5 -24 9 -3 5 -17 10 -32 11 -15 1 -27 6 -27 11 0 4 -4 6 -9 3 -5 -4
-12 0 -14 6 -4 10 -6 10 -6 0 -1 -10 -5 -9 -17 3 -14 13 -19 14 -25 3 -7 -10
-9 -9 -9 4 0 11 -6 15 -19 11 -10 -3 -21 2 -24 10 -3 8 -17 13 -36 12 -17 -1
-31 2 -31 8 0 5 -7 7 -15 3 -8 -3 -15 0 -16 7 0 7 -5 2 -11 -10 -6 -13 -15
-23 -20 -23 -5 0 -6 -5 -3 -10 3 -6 -1 -13 -9 -16 -9 -3 -13 -10 -10 -15 3 -5
0 -9 -6 -9 -6 0 -9 -4 -5 -9 3 -5 1 -12 -5 -16 -6 -4 -7 -11 -4 -17 4 -6 2 -8
-4 -4 -6 3 -13 -3 -17 -14 -3 -11 -11 -20 -17 -20 -6 0 -5 -7 3 -17 8 -9 9
-14 2 -10 -7 4 -16 -5 -25 -23 -7 -16 -15 -30 -19 -30 -3 0 -11 -16 -19 -35
-8 -19 -18 -35 -22 -35 -5 0 -7 -4 -4 -9 3 -5 -1 -12 -10 -15 -8 -3 -12 -10
-9 -16 3 -5 1 -10 -5 -10 -7 0 -10 -7 -6 -15 3 -8 1 -15 -5 -15 -6 0 -7 -5 -3
-12 4 -6 3 -8 -3 -5 -6 4 -17 -1 -24 -10 -10 -12 -10 -14 -1 -9 6 4 12 2 12
-3 0 -6 -5 -11 -11 -11 -6 0 -8 -7 -5 -16 3 -8 2 -12 -4 -9 -6 3 -10 3 -10 0
0 -10 27 -35 32 -30 3 3 11 -6 18 -20 7 -14 19 -25 27 -25 7 0 13 -7 13 -15 0
-9 6 -12 15 -9 9 4 15 0 15 -9 0 -8 8 -21 18 -28 16 -13 16 -13 2 6 -14 19
-14 19 3 6 9 -7 17 -20 17 -28 0 -7 8 -17 17 -20 9 -4 31 -20 48 -37 47 -46
105 -96 105 -90 0 3 6 -1 14 -8 10 -9 11 -18 5 -30 -6 -10 -6 -18 -2 -18 4 0
-1 -7 -11 -15 -11 -8 -14 -15 -7 -15 7 0 9 -5 4 -12 -4 -7 -9 -22 -10 -33 -2
-11 -8 -22 -13 -23 -6 -2 -8 -8 -4 -13 3 -5 1 -9 -5 -9 -5 0 -8 -9 -6 -20 2
-11 0 -22 -6 -25 -5 -4 -9 -17 -9 -31 0 -15 -4 -23 -10 -19 -13 8 -8 -18 5
-27 6 -5 6 -8 -1 -8 -7 0 -15 -7 -18 -16 -4 -10 -2 -13 7 -8 8 6 8 3 -1 -9 -8
-9 -11 -21 -7 -27 3 -5 1 -10 -5 -10 -7 0 -10 -7 -7 -15 4 -8 2 -17 -4 -21 -5
-3 -7 -14 -4 -24 3 -10 2 -21 -3 -24 -5 -3 -8 -19 -7 -36 1 -16 -2 -30 -7 -30
-4 0 -8 -5 -8 -11 0 -5 6 -7 13 -3 8 5 8 2 -2 -9 -16 -20 -25 -22 -16 -4 4 6
-2 2 -12 -11 -15 -18 -21 -20 -31 -10 -9 9 -12 9 -12 -2 0 -13 -2 -13 -10 0
-7 11 -10 11 -10 2 0 -7 -4 -10 -10 -7 -5 3 -10 0 -10 -7 0 -9 -3 -9 -10 2 -6
10 -10 11 -10 3 0 -7 -3 -12 -7 -12 -25 4 -63 -2 -59 -10 3 -4 -8 -7 -25 -5
-18 2 -28 0 -24 -6 3 -6 1 -10 -4 -10 -6 0 -11 6 -11 13 0 9 -3 8 -9 -2 -7
-11 -9 -11 -14 0 -4 11 -6 11 -6 1 -1 -7 -5 -10 -11 -7 -5 3 -10 2 -10 -3 0
-6 -16 -9 -35 -8 -19 1 -35 -2 -35 -5 0 -4 -7 -10 -16 -13 -10 -4 -13 -2 -8 7
6 9 5 9 -8 0 -8 -7 -18 -10 -21 -6 -4 3 -7 2 -7 -4 0 -6 -8 -10 -17 -9 -11 0
-17 -6 -17 -16 1 -10 -1 -18 -5 -18 -8 0 -6 -54 3 -68 4 -7 2 -12 -4 -12 -8 0
-8 -6 0 -20 6 -11 7 -20 3 -20 -4 0 -8 -18 -8 -40 0 -22 5 -40 10 -40 7 0 7
-3 0 -8 -5 -4 -10 -20 -10 -37 0 -16 5 -33 10 -37 7 -5 7 -8 0 -8 -11 0 -12
-121 -1 -139 4 -6 2 -11 -4 -11 -8 0 -8 -6 0 -20 6 -12 7 -20 1 -20 -5 0 -7
-9 -4 -20 6 -23 23 -26 42 -7 11 10 13 10 7 0 -4 -8 -2 -13 6 -14 16 -2 31 -5
38 -9 3 -1 14 -4 25 -5 40 -6 78 -14 83 -19 3 -3 12 0 20 7 13 9 14 9 8 0 -7
-12 16 -18 52 -14 6 1 12 -2 12 -7 0 -5 14 -9 31 -10 17 0 38 -7 47 -14 13
-11 15 -11 7 2 -7 12 -6 13 6 3 12 -9 18 -10 27 -1 8 8 13 7 17 -5 4 -9 13
-13 21 -10 8 3 14 0 14 -7 0 -6 4 -9 8 -6 8 4 13 -21 16 -76 0 -16 4 -28 8
-28 5 0 7 -3 7 -7 -1 -5 -1 -21 0 -36 1 -20 5 -26 14 -21 9 6 9 4 -1 -8 -9
-11 -9 -17 -2 -20 6 -2 12 -18 12 -36 1 -17 4 -32 7 -32 6 0 11 -26 14 -67 0
-7 4 -13 9 -13 5 0 7 -4 3 -9 -3 -5 2 -16 10 -24 17 -18 20 -31 4 -22 -10 7 9
-33 21 -45 3 -3 5 -12 5 -20 -1 -8 4 -24 11 -36 8 -13 9 -26 3 -35 -5 -8 -9
-9 -9 -4 -1 6 -8 -2 -16 -17 -8 -16 -19 -28 -24 -28 -6 0 -33 -23 -60 -50 -27
-27 -54 -50 -60 -50 -5 0 -10 -7 -10 -15 0 -9 -6 -12 -17 -8 -10 3 -15 3 -11
-2 8 -8 -28 -45 -44 -45 -4 0 -7 -6 -5 -12 1 -7 -3 -12 -10 -11 -7 2 -17 -6
-23 -17 -6 -12 -16 -18 -23 -14 -7 4 -9 4 -5 0 3 -4 -3 -17 -14 -28 -15 -15
-17 -22 -8 -28 6 -4 11 -11 11 -16 -2 -21 11 -44 25 -44 8 0 13 -3 13 -7 -4
-25 2 -53 11 -48 9 6 14 -8 11 -27 0 -5 4 -8 9 -8 6 0 10 -7 10 -16 0 -8 4
-12 10 -9 6 3 7 -1 4 -9 -3 -9 -1 -16 5 -16 5 0 15 -10 22 -21 9 -17 8 -20 -3
-14 -7 3 -3 -3 10 -14 13 -11 23 -22 22 -25 -1 -21 2 -26 17 -26 13 0 14 -3 6
-11 -9 -9 -6 -17 10 -31 12 -11 16 -16 8 -12 -13 6 19 -44 47 -74 6 -7 12 -17
12 -22 0 -10 19 -8 38 3 6 5 17 5 24 1 7 -5 8 -3 3 6 -6 10 -4 12 8 7 9 -3 19
-2 23 4 3 6 12 8 20 5 8 -3 14 0 14 6 0 6 3 8 7 5 3 -4 12 -2 20 4 7 6 13 8
13 4 0 -4 11 0 25 9 13 9 28 16 32 16 4 0 1 -5 -7 -10 -10 -7 -11 -10 -2 -10
7 0 15 6 18 14 3 8 12 12 20 9 8 -3 14 -1 14 5 0 6 8 9 18 8 9 -2 20 2 24 8 5
7 8 7 8 -2 0 -10 4 -9 16 3 14 13 19 14 25 3 7 -10 9 -8 9 6 0 11 3 16 7 13 3
-4 13 -1 21 6 13 9 14 9 8 0 -5 -9 -2 -11 8 -7 9 3 16 10 16 15 0 15 34 -4 68
-38 17 -18 32 -38 32 -44 0 -5 5 -7 10 -4 10 6 15 -9 10 -30 -1 -5 1 -7 5 -4
3 4 21 -8 39 -27 18 -19 37 -34 43 -34 5 0 15 -12 21 -26 7 -14 17 -22 22 -19
6 3 10 0 10 -8 0 -18 133 -137 153 -137 5 0 4 -7 -3 -15 -10 -12 -10 -15 0
-15 9 0 9 -4 -1 -17 -12 -15 -12 -16 1 -8 10 6 9 2 -3 -12 -10 -11 -17 -24
-16 -29 4 -19 -14 -73 -22 -68 -5 3 -6 -2 -3 -10 3 -9 2 -16 -4 -16 -5 0 -8
-11 -7 -25 2 -14 -1 -25 -6 -25 -6 0 -7 -5 -4 -10 3 -6 2 -10 -4 -10 -6 0 -8
-6 -5 -14 3 -8 1 -17 -5 -21 -6 -3 -11 -17 -11 -30 0 -13 -5 -27 -11 -30 -6
-4 -8 -13 -5 -21 3 -8 1 -14 -4 -14 -5 0 -7 -9 -5 -20 2 -11 0 -18 -4 -15 -5
3 -11 -2 -15 -10 -3 -8 -1 -15 4 -15 5 0 7 -6 4 -14 -6 -15 29 -40 40 -29 3 3
6 1 6 -5 0 -7 7 -12 15 -12 8 0 15 -4 15 -10 0 -5 7 -10 15 -10 8 0 15 -5 15
-11 0 -5 4 -8 9 -4 5 3 16 -2 24 -10 9 -8 20 -15 26 -15 5 0 15 -8 20 -17 8
-14 11 -15 11 -3 0 10 7 7 20 -10 10 -14 24 -26 29 -26 6 -1 18 -2 26 -3 8 0
23 -9 33 -19 11 -11 33 -25 50 -33 18 -8 32 -18 32 -22 0 -5 4 -6 9 -2 6 3 19
-5 31 -17 16 -18 23 -20 29 -10 5 8 11 12 13 10 3 -1 31 23 62 54 31 32 54 58
51 58 -2 0 20 25 50 55 30 30 52 55 49 55 -3 0 16 20 42 45 25 25 43 45 38 45
-5 0 -2 4 6 10 9 6 20 5 29 -3 12 -9 13 -9 7 1 -4 6 -2 12 3 12 6 0 11 -4 11
-10 0 -5 13 -10 29 -10 17 0 33 -4 36 -10 3 -5 17 -10 31 -10 14 0 23 -4 20
-8 -2 -4 5 -9 17 -10 40 -4 56 -8 63 -15 4 -4 16 -7 26 -7 10 0 18 -6 18 -12
0 -9 4 -8 10 2 7 11 10 11 10 2 0 -7 4 -11 9 -8 5 4 12 0 14 -6 4 -10 6 -9 6
1 1 11 5 10 20 -3 12 -11 21 -14 26 -7 4 7 14 5 31 -5 19 -13 24 -14 24 -3 0
11 2 11 10 -1 5 -8 12 -11 16 -7 4 4 14 1 22 -6 13 -10 14 -9 7 3 -6 12 -5 13
6 3 7 -7 21 -13 31 -13 10 0 19 -6 20 -12 1 -15 5 -31 8 -38 1 -3 3 -17 4 -32
2 -15 7 -33 13 -40 11 -15 11 -28 -1 -47 -7 -10 -6 -12 4 -6 10 6 12 4 7 -8
-3 -10 -2 -17 4 -17 5 0 9 -6 8 -13 -1 -6 1 -20 6 -30 4 -9 5 -28 3 -42 -3
-13 -2 -22 2 -20 5 3 11 -2 14 -11 4 -10 2 -13 -7 -8 -8 6 -8 3 1 -8 7 -9 15
-36 18 -60 2 -24 5 -49 6 -55 1 -13 12 -17 36 -14 6 1 12 -2 12 -7 0 -5 7 -9
15 -9 8 0 12 3 10 7 -7 11 69 6 77 -5 5 -7 8 -6 8 1 0 6 12 10 28 9 15 -1 33
3 41 9 11 8 13 8 8 0 -4 -7 0 -14 7 -17 8 -3 16 -1 18 4 2 7 13 7 31 0 16 -6
26 -7 23 -3 -2 4 13 8 35 8 21 0 39 -4 39 -10 0 -7 3 -8 8 -1 10 14 75 15 84
1 6 -8 8 -8 8 1 0 13 18 12 39 -1 10 -6 12 -5 7 2 -5 8 0 12 13 12 17 0 21 6
21 30 0 17 4 30 10 30 12 0 9 22 -5 32 -6 5 -5 8 3 8 7 0 12 13 12 31 0 19 4
28 11 23 7 -4 7 1 -1 16 -7 13 -8 20 -2 16 6 -3 13 -2 17 4 3 5 2 10 -4 10 -7
0 -7 8 -1 24 5 13 6 27 3 30 -4 3 -2 6 4 6 6 0 13 7 16 14 4 11 1 13 -11 9
-15 -6 -15 -4 -4 9 7 9 15 27 16 40 2 13 7 31 11 40 4 9 4 22 0 28 -3 5 -1 10
6 10 7 0 9 3 6 7 -4 3 -1 13 6 21 10 13 9 14 -3 7 -10 -5 -12 -5 -5 3 6 5 21
12 35 14 14 1 28 8 32 13 5 6 8 5 8 -3 0 -9 5 -10 19 -2 11 5 31 10 45 10 14
0 28 5 31 10 3 6 11 10 16 10 6 0 7 -4 4 -10 -3 -6 1 -7 9 -4 9 3 16 11 16 18
0 6 5 4 10 -4 7 -12 10 -12 10 -1 0 7 6 11 15 7 8 -3 15 -2 15 3 0 4 6 8 13 9
10 1 22 3 70 11 5 0 6 4 4 9 -3 4 11 7 31 8 20 0 38 6 40 12 2 7 8 9 13 6 6
-3 16 0 24 6 8 6 18 9 24 6 5 -3 12 2 15 11 6 15 8 15 16 3 7 -10 10 -11 10
-3 0 19 23 11 37 -12 6 -11 14 -19 17 -17 3 1 6 0 6 -3 0 -3 17 -22 37 -43 21
-20 37 -40 35 -44 -1 -5 5 -8 13 -8 8 0 17 -11 21 -25 3 -14 9 -23 13 -20 4 2
24 -15 45 -38 53 -60 55 -64 49 -71 -6 -6 14 -10 32 -6 6 1 7 -1 3 -5 -4 -4 2
-16 12 -28 15 -15 22 -17 33 -9 8 7 17 9 20 5 4 -3 7 -1 7 5 0 7 7 12 16 12 8
0 13 4 10 8 -2 4 5 9 17 9 12 1 23 7 25 13 2 5 10 10 18 10 8 0 14 5 14 11 0
5 4 7 10 4 5 -3 15 3 21 14 7 10 18 17 25 14 6 -2 15 1 19 6 3 6 11 9 16 5 5
-3 8 0 7 8 -2 7 7 14 20 16 13 2 26 10 29 18 3 8 9 12 13 9 5 -3 16 2 24 11 9
8 16 13 16 9 0 -4 7 0 15 7 29 26 40 33 55 33 8 0 13 7 11 15 -2 8 -4 20 -4
27 0 7 -4 10 -9 7 -5 -3 -16 3 -26 13 -9 11 -15 14 -12 8 3 -6 -2 -4 -11 5
-35 34 -72 64 -64 51 6 -10 4 -12 -4 -7 -7 5 -10 15 -7 23 3 8 2 12 -3 8 -5
-3 -17 2 -25 11 -9 8 -16 12 -16 7 0 -4 -5 0 -11 10 -5 9 -14 17 -19 17 -5 0
-22 12 -37 26 -15 14 -39 35 -52 47 -13 12 -20 15 -16 7 4 -8 -9 2 -29 24 -20
21 -36 33 -36 26 0 -7 -13 2 -30 20 -16 18 -30 28 -30 24 0 -5 -5 -1 -11 9 -5
9 -14 17 -19 17 -13 0 -56 43 -53 52 2 4 -4 5 -12 2 -8 -4 -15 -1 -15 6 0 6
-4 9 -8 6 -5 -3 -15 4 -22 15 -8 10 -21 19 -28 19 -8 0 -12 6 -9 14 4 11 1 13
-10 9 -12 -5 -14 -3 -8 7 6 10 4 12 -8 7 -11 -4 -17 -1 -17 9 0 8 -4 12 -10 9
-6 -3 -10 -1 -10 5 0 6 -4 9 -9 5 -5 -3 -12 3 -15 13 -6 18 -36 27 -36 10 0
-4 -7 -8 -15 -8 -8 0 -15 -4 -15 -8 0 -8 -6 -10 -49 -14 -11 -1 -17 -6 -15
-10 5 -7 -13 -12 -43 -11 -7 1 -11 -3 -8 -7 2 -4 -13 -13 -35 -20 -24 -8 -37
-17 -33 -24 4 -6 -1 -5 -10 3 -12 9 -17 10 -17 2 0 -7 -4 -9 -10 -6 -5 3 -10
2 -10 -3 0 -6 -6 -10 -12 -9 -33 1 -49 -4 -43 -13 3 -5 2 -10 -4 -10 -5 0 -12
6 -14 13 -4 9 -6 9 -6 -1 -1 -7 -5 -10 -11 -7 -5 3 -10 1 -10 -6 0 -8 -5 -7
-17 2 -11 10 -14 10 -9 2 4 -8 1 -13 -8 -13 -26 0 -30 -1 -43 -12 -9 -7 -13
-7 -13 1 0 8 -10 6 -30 -4 -16 -9 -30 -13 -30 -9 0 4 -8 0 -17 -7 -14 -12 -15
-12 -9 -1 7 11 4 12 -12 3 -12 -6 -44 -12 -71 -13 -28 -2 -51 -5 -51 -9 0 -8
-32 -5 -48 5 -6 4 -12 3 -12 -3 0 -5 -9 -8 -20 -6 -11 2 -20 1 -20 -3 0 -4
-52 -7 -115 -7 -70 0 -115 4 -115 10 0 6 -4 4 -8 -3 -7 -10 -14 -10 -37 2 -21
11 -32 12 -42 4 -9 -7 -17 -7 -27 1 -10 9 -16 9 -21 1 -5 -7 -11 -8 -19 -1 -6
5 -33 11 -59 13 -26 2 -47 7 -47 12 0 5 -7 3 -15 -4 -12 -10 -15 -9 -15 5 0
13 -3 15 -13 7 -8 -7 -18 -7 -27 -2 -8 5 -18 6 -22 4 -4 -3 -8 0 -8 6 0 6 -8
10 -17 8 -10 -1 -24 1 -32 6 -11 7 -12 6 -6 -5 8 -12 6 -12 -8 0 -9 7 -17 10
-17 5 0 -5 -4 -3 -8 3 -5 7 -20 14 -35 15 -15 1 -27 6 -27 10 0 4 -3 7 -7 7
-25 -4 -53 2 -48 10 3 6 -3 10 -12 10 -39 1 -53 5 -53 13 0 4 -9 8 -20 8 -11
0 -20 5 -20 11 0 5 -4 8 -8 5 -5 -3 -21 2 -36 10 -16 7 -35 14 -42 14 -8 0
-14 4 -14 9 0 5 -7 12 -16 15 -10 4 -13 2 -9 -7 4 -6 -3 -1 -15 13 -12 14 -19
18 -15 10 4 -8 -1 -6 -9 4 -12 15 -16 16 -16 5 0 -8 -3 -10 -8 -4 -4 6 -19 16
-34 24 -15 8 -25 18 -22 22 3 5 -2 6 -10 3 -8 -3 -24 4 -36 16 -12 12 -24 20
-26 17 -3 -3 -17 6 -31 19 -14 13 -29 22 -32 19 -4 -2 -13 5 -21 15 -8 10 -17
17 -22 14 -4 -3 -8 2 -8 10 0 10 -6 13 -15 10 -10 -4 -15 0 -15 12 0 15 -2 16
-9 5 -7 -11 -10 -9 -16 8 -3 12 -10 19 -14 17 -10 -7 -41 31 -33 39 4 4 3 6
-3 5 -21 -5 -46 0 -41 8 6 10 -30 43 -38 35 -3 -4 -6 1 -6 10 0 8 -9 18 -20
22 -11 3 -19 9 -17 13 3 12 -45 62 -55 56 -4 -3 -8 0 -8 6 0 6 -18 29 -40 51
-22 23 -37 46 -33 52 3 7 3 9 -2 5 -11 -11 -36 12 -28 25 3 5 2 8 -3 5 -5 -3
-15 0 -22 8 -7 8 -10 14 -6 14 4 0 -2 9 -14 20 -12 12 -22 25 -22 31 0 6 -5 7
-12 3 -7 -5 -8 -3 -3 5 4 8 -2 21 -14 32 -12 11 -18 25 -15 31 4 6 3 8 -3 5
-6 -4 -17 1 -24 10 -12 14 -12 16 1 8 11 -6 10 -3 -2 12 -10 11 -18 25 -18 31
0 7 -4 12 -9 12 -5 0 -15 16 -22 35 -7 19 -17 35 -21 35 -4 0 -8 7 -8 16 0 9
-5 12 -12 8 -8 -5 -7 0 2 11 9 11 10 16 3 11 -8 -4 -13 -1 -13 8 0 9 -5 16
-11 16 -6 0 -9 6 -7 12 3 7 -4 22 -14 32 -10 11 -16 26 -14 33 3 7 1 13 -4 13
-6 0 -10 6 -10 14 0 7 -7 26 -14 42 -8 15 -13 31 -10 36 3 4 0 8 -5 8 -6 0
-11 9 -11 21 0 11 -4 18 -9 15 -4 -3 -6 6 -3 21 4 19 2 24 -8 18 -9 -6 -11 -4
-6 4 5 7 0 21 -11 33 -10 12 -12 18 -5 14 6 -4 12 -2 12 3 0 6 -6 11 -12 11
-10 0 -10 2 0 9 11 6 10 10 -3 15 -9 3 -15 12 -12 20 3 7 0 19 -6 26 -9 10 -9
11 3 5 11 -6 10 -3 -3 12 -20 23 -23 38 -4 27 9 -6 9 -4 1 7 -6 8 -12 22 -13
32 -1 9 -2 28 -3 41 -1 14 -6 22 -12 19 -5 -4 -7 0 -3 9 3 9 0 21 -6 27 -8 8
-7 11 4 11 12 0 12 2 -1 10 -8 5 -11 10 -6 10 5 0 2 8 -5 17 -10 11 -10 14 -1
9 16 -9 16 6 0 23 -11 11 -10 12 1 6 10 -6 12 -4 5 6 -8 13 -14 61 -15 114 0
11 -5 23 -12 27 -9 6 -8 8 2 8 11 0 11 3 1 15 -7 9 -8 15 -2 15 12 0 11 18 -2
39 -6 10 -5 12 2 7 16 -9 15 7 0 22 -8 8 -9 12 -1 12 13 0 12 18 -1 39 -6 9
-5 12 2 7 12 -7 11 32 -2 52 -4 7 -1 15 8 18 9 3 16 10 16 16 0 5 -4 7 -8 4
-4 -2 -8 4 -8 14 0 10 3 17 7 14 4 -2 6 10 5 28 -2 18 1 41 5 50 6 10 5 19 -1
23 -7 4 -7 11 -2 18 15 20 20 53 10 71 -7 12 -6 16 4 14 9 -2 13 8 12 30 0 17
3 32 7 32 5 0 6 7 3 15 -4 8 -2 15 3 15 5 0 10 6 10 13 0 6 3 23 7 36 6 18 5
22 -5 16 -8 -5 -5 1 5 13 12 14 14 22 7 22 -8 0 -7 5 3 16 9 8 14 20 11 25 -4
5 0 9 7 9 8 0 9 3 2 8 -7 5 -7 14 1 29 7 13 15 20 18 16 4 -3 7 -1 7 5 0 7 -6
12 -12 12 -8 1 -6 6 5 14 10 8 19 22 21 32 9 43 12 49 26 61 10 9 11 12 3 13
-7 0 -13 5 -13 11 0 5 5 7 10 4 6 -3 10 1 10 10 0 10 5 13 12 9 7 -4 8 -3 4 5
-8 13 14 71 27 71 5 0 5 5 2 10 -3 6 -1 10 4 10 6 0 10 3 10 8 -4 21 2 32 14
26 6 -4 9 -4 5 1 -4 4 -3 14 3 22 6 7 8 13 5 13 -4 0 -1 7 6 15 30 34 36 43
31 49 -3 3 1 8 10 12 9 3 13 12 10 20 -3 7 2 17 11 20 9 3 16 15 16 26 0 10 4
17 9 14 5 -3 11 0 14 7 2 6 6 16 8 22 2 5 16 22 32 38 15 15 25 33 21 38 -3 5
0 8 7 7 7 -2 13 4 14 12 1 8 6 14 13 12 7 -1 12 4 12 12 0 8 7 17 16 20 8 3
13 9 11 13 -5 10 200 213 207 206 3 -3 8 2 12 11 3 9 12 16 20 16 8 0 13 3 12
8 -2 4 -1 7 2 7 3 0 19 12 35 28 16 15 33 27 38 27 4 0 5 5 1 12 -4 7 -3 8 4
4 7 -4 23 5 37 20 14 15 28 25 31 22 3 -3 16 5 30 19 13 13 29 21 34 18 6 -3
10 -1 10 5 0 6 5 8 10 5 6 -3 10 1 10 10 0 9 4 14 9 11 5 -3 20 4 35 15 14 11
26 17 26 12 0 -4 7 0 15 11 7 10 18 15 24 11 6 -3 11 -1 11 5 0 6 5 8 10 5 6
-3 10 -1 10 5 0 6 5 8 10 5 6 -3 10 -1 10 5 0 6 4 9 9 5 6 -3 13 1 18 9 4 8
13 15 18 16 30 3 54 13 50 21 -3 4 4 6 15 4 11 -2 20 1 20 6 0 6 4 8 9 4 5 -3
12 -1 16 5 4 6 11 8 16 5 5 -4 9 -2 9 4 0 6 7 8 15 5 8 -4 15 -1 15 6 0 7 8
10 20 7 11 -3 20 -2 20 3 0 4 7 11 16 14 8 3 12 2 9 -3 -3 -5 9 -3 26 6 17 8
41 16 55 17 13 0 24 5 24 10 0 5 3 6 7 3 3 -4 13 -1 21 6 13 10 14 9 7 -2 -6
-11 -5 -12 6 -5 14 9 27 12 67 18 12 1 25 6 29 9 3 4 19 7 35 7 16 0 28 5 28
13 0 9 2 9 9 -1 12 -19 15 -19 36 -2 14 11 17 11 11 2 -7 -11 -4 -12 13 -3 11
7 21 8 21 4 0 -4 5 -1 10 7 5 8 10 10 10 5 0 -6 9 -11 20 -11 11 0 20 4 20 9
0 5 6 4 14 -2 11 -9 15 -8 20 4 4 11 11 13 23 8 22 -10 84 -10 100 0 6 4 14 3
18 -3 3 -5 11 -10 16 -10 6 0 8 4 5 8 -3 5 1 9 9 9 8 0 15 -3 15 -7 0 -10 33
-9 46 2 7 5 14 3 17 -6 4 -10 15 -12 46 -6 23 4 44 4 47 -1 2 -4 12 -5 21 -2
12 5 14 3 8 -8 -8 -12 -6 -12 8 0 11 9 17 10 17 2 0 -13 22 -10 32 4 5 6 8 5
8 -4 0 -7 6 -11 15 -7 8 3 15 1 15 -3 0 -5 9 -7 20 -4 12 3 20 0 20 -7 0 -10
3 -10 15 0 8 7 15 8 15 3 0 -5 14 -10 32 -11 18 -2 36 -8 40 -15 6 -9 8 -8 8
3 0 13 1 13 10 0 5 -8 10 -11 10 -7 0 4 10 2 23 -5 12 -7 28 -11 35 -9 8 1 21
-4 30 -11 11 -9 14 -10 8 -1 -5 9 -2 11 8 7 9 -3 16 -10 16 -15 0 -4 7 -6 15
-3 8 4 15 1 15 -6 0 -10 4 -9 16 0 12 11 15 11 12 1 -2 -8 8 -15 22 -17 13 -3
29 -9 34 -14 6 -6 18 -10 28 -10 10 0 18 -5 18 -12 0 -6 3 -8 7 -5 3 4 17 0
31 -9 18 -12 23 -12 17 -3 -3 8 0 6 9 -5 8 -10 19 -15 25 -11 6 3 11 1 11 -4
0 -6 7 -11 15 -11 8 0 15 -5 15 -11 0 -5 5 -7 10 -4 6 3 13 0 16 -9 3 -8 12
-12 20 -9 8 3 14 -1 14 -8 0 -11 3 -11 10 1 8 13 10 12 10 -3 0 -10 5 -15 10
-12 6 3 10 1 10 -4 0 -6 7 -11 16 -11 9 0 12 -5 8 -12 -5 -7 -3 -8 5 -4 7 5
18 1 25 -9 12 -16 14 -16 37 7 13 13 32 27 42 31 10 4 15 11 12 17 -3 5 1 10
9 10 9 0 16 5 16 11 0 5 4 8 8 5 5 -3 14 3 22 14 7 10 20 16 29 12 9 -3 13 -2
9 2 -13 15 50 63 74 58 4 -1 4 6 1 15 -4 10 -2 14 4 10 6 -4 18 2 28 13 10 11
24 20 32 20 8 0 11 5 7 12 -5 8 -2 9 10 5 10 -4 15 -3 11 3 -3 6 1 10 10 10
10 0 13 5 9 12 -5 8 -2 9 10 5 9 -4 15 -3 12 1 -7 12 33 44 46 36 7 -4 8 -3 4
4 -6 10 25 35 35 29 2 -1 3 0 2 2 -2 2 12 15 29 27 33 25 62 79 54 101 -3 7 2
19 10 28 9 9 14 25 11 35 -3 11 -2 18 3 15 7 -4 26 60 22 78 -1 4 3 7 9 7 8 0
7 6 -2 17 -12 14 -12 16 0 8 10 -5 12 -4 7 3 -4 7 -14 12 -22 12 -8 0 -14 5
-14 10 0 6 -7 10 -16 10 -9 0 -23 8 -31 18 -10 11 -12 12 -8 2 4 -10 2 -9 -8
3 -8 9 -22 17 -31 17 -9 0 -19 7 -23 16 -3 8 -11 13 -18 10 -8 -3 -16 2 -19
11 -4 9 -13 13 -22 9 -8 -3 -13 -2 -10 2 2 4 -16 19 -42 32 -26 14 -52 31 -58
39 -6 8 -22 16 -35 18 -13 2 -29 10 -35 18 -6 8 -14 12 -17 8 -4 -3 -7 -1 -7
6 0 7 -4 10 -9 6 -5 -3 -17 2 -25 11 -11 10 -16 11 -16 3 0 -7 -3 -10 -6 -6
-4 3 -18 -8 -33 -25 -14 -17 -33 -39 -43 -49 -9 -9 -14 -20 -11 -23 4 -3 -1
-6 -9 -6 -9 0 -22 -8 -29 -17 -12 -14 -12 -16 0 -8 10 5 12 4 7 -3 -4 -7 -14
-12 -22 -12 -8 0 -14 -7 -14 -15 0 -8 -4 -15 -10 -15 -5 0 -10 -7 -10 -16 0
-8 -3 -13 -7 -11 -5 2 -21 -9 -36 -25 -15 -15 -25 -28 -20 -28 4 0 -15 -20
-41 -45 -45 -41 -76 -59 -61 -35 6 9 1 11 -37 14 -7 1 -19 7 -26 14 -8 7 -17
10 -22 7 -5 -3 -11 -1 -15 5 -4 6 -11 8 -16 5 -5 -4 -9 -1 -9 4 0 6 -5 11 -11
11 -5 0 -7 -5 -4 -10 4 -6 -5 -5 -19 2 -14 6 -26 14 -26 18 0 11 -30 7 -30 -4
0 -6 -5 -3 -11 6 -5 10 -16 15 -24 12 -9 -4 -15 0 -15 7 0 11 -3 11 -10 -1 -8
-12 -10 -12 -10 -1 0 8 -3 11 -7 8 -3 -4 -13 -1 -21 6 -12 9 -14 9 -9 0 5 -9
0 -8 -19 2 -14 7 -35 12 -45 10 -11 -2 -19 0 -19 6 0 5 -12 8 -27 8 -51 -3
-74 1 -68 11 3 6 0 10 -8 10 -7 0 -14 6 -14 13 0 6 -4 21 -9 31 -6 15 -4 17 7
11 8 -5 5 2 -6 15 -11 13 -14 20 -7 16 12 -7 12 -4 1 15 -7 13 -12 37 -10 53
2 21 -1 26 -11 20 -10 -6 -10 -4 1 9 7 9 10 17 5 17 -15 0 -31 45 -23 66 3 10
2 24 -3 30 -7 10 -14 46 -17 97 -1 5 -4 6 -9 4 -4 -3 -7 9 -7 26 0 26 -4 31
-25 31 -14 0 -31 -3 -38 -8 -7 -4 -12 -2 -12 6 0 9 -3 9 -10 -2 -5 -8 -10 -10
-10 -4 0 12 -29 12 -48 0 -7 -4 -12 -2 -12 6 0 9 -3 9 -10 -2 -7 -11 -10 -11
-10 -2 0 10 -5 10 -20 2 -11 -6 -20 -7 -20 -1 0 5 -11 8 -24 7 -13 0 -22 -4
-19 -8 2 -5 0 -8 -6 -8 -5 0 -11 6 -14 13 -3 9 -7 9 -19 -1 -11 -9 -17 -9 -20
-2 -2 8 -11 8 -30 1 -19 -7 -28 -7 -30 1 -3 8 -11 7 -27 -2 -15 -7 -21 -8 -17
-1 10 15 -7 14 -22 -1 -9 -9 -12 -9 -12 0 0 10 -5 10 -20 2 -11 -6 -20 -7 -20
-2 0 11 -29 11 -36 0z"/>
<path d="M8210 7250 c-8 -5 -18 -6 -22 -4 -4 3 -8 0 -8 -7 0 -7 -3 -9 -7 -6
-3 4 -17 0 -30 -8 -13 -9 -28 -13 -33 -10 -6 3 -10 1 -10 -6 0 -7 -3 -10 -6
-6 -11 11 -108 -79 -99 -93 4 -6 3 -9 -2 -8 -4 2 -8 0 -8 -4 0 -4 -8 -13 -18
-20 -10 -7 -19 -26 -21 -42 -2 -15 -9 -32 -17 -37 -12 -7 -12 -9 1 -9 12 0 12
-2 2 -9 -8 -4 -13 -11 -13 -15 2 -23 -13 -34 -41 -29 -21 3 -28 1 -23 -7 5 -9
2 -9 -11 -2 -11 5 -25 7 -32 5 -7 -3 -19 0 -26 7 -8 6 -17 7 -19 2 -7 -11
-178 -9 -196 2 -9 6 -12 5 -8 -1 4 -6 -6 -10 -23 -11 -16 0 -32 4 -36 9 -3 6
-10 6 -17 1 -15 -11 -137 -10 -156 2 -9 6 -12 5 -8 -1 4 -6 -6 -10 -23 -11
-16 0 -32 4 -36 9 -4 6 -10 6 -17 1 -7 -6 -35 -9 -64 -8 -45 2 -53 -1 -64 -21
-7 -13 -17 -22 -22 -20 -6 2 -24 -11 -41 -28 -17 -18 -39 -35 -49 -38 -9 -4
-16 -12 -15 -19 2 -7 -4 -13 -12 -13 -8 0 -24 -9 -35 -21 -11 -11 -43 -39 -72
-61 -29 -22 -49 -44 -45 -48 4 -5 -1 -5 -10 -2 -12 4 -18 1 -18 -9 0 -8 -3
-13 -7 -11 -11 7 -33 -19 -25 -29 4 -4 0 -5 -9 -1 -11 3 -21 -3 -29 -18 -7
-14 -16 -22 -21 -20 -4 3 -17 -7 -28 -21 -12 -15 -21 -24 -21 -20 0 3 -10 -3
-22 -13 -13 -11 -36 -31 -52 -45 -17 -14 -34 -22 -39 -19 -6 3 -7 1 -4 -4 4
-6 -1 -17 -10 -24 -14 -12 -16 -12 -9 1 4 8 -2 3 -14 -12 -12 -16 -28 -28 -36
-28 -9 0 -13 -4 -9 -9 3 -5 -4 -12 -15 -16 -11 -4 -17 -11 -14 -17 4 -7 2 -8
-5 -4 -13 9 -43 -18 -33 -29 4 -5 -1 -5 -10 -2 -11 4 -17 2 -15 -6 1 -7 -4
-11 -10 -9 -7 1 -13 -5 -13 -13 0 -8 -7 -15 -15 -15 -8 0 -15 -5 -15 -12 0 -6
-3 -8 -7 -5 -3 4 -12 -2 -20 -13 -8 -11 -18 -20 -24 -20 -12 0 -49 -37 -49
-50 0 -6 -3 -9 -7 -9 -19 3 -36 -2 -30 -8 4 -3 -9 -16 -28 -27 -19 -12 -35
-25 -37 -31 -2 -5 -6 -9 -10 -7 -5 1 -8 -2 -8 -8 0 -6 -6 -9 -12 -8 -7 2 -12
-3 -10 -9 1 -7 -4 -13 -12 -13 -8 0 -24 -12 -36 -27 -12 -16 -19 -21 -15 -13
4 8 -5 2 -19 -15 -14 -16 -26 -26 -26 -21 0 5 -8 -1 -19 -12 -10 -12 -24 -22
-31 -22 -7 0 -10 -3 -7 -7 4 -3 -3 -11 -16 -18 -12 -6 -21 -17 -19 -24 1 -7
-3 -11 -10 -9 -14 5 -49 -22 -43 -33 3 -4 -3 -6 -13 -5 -9 0 -16 -5 -14 -11 1
-7 -2 -13 -8 -13 -5 0 -21 -12 -36 -27 -15 -16 -21 -19 -14 -8 11 16 8 15 -12
-4 -15 -13 -25 -28 -22 -32 3 -5 -2 -6 -10 -3 -9 3 -16 1 -16 -6 0 -6 -5 -8
-10 -5 -6 4 -9 3 -8 -2 2 -5 -9 -21 -24 -36 -14 -14 -28 -22 -30 -16 -2 7 -10
4 -18 -7 -13 -16 -13 -17 0 -10 8 4 2 -3 -15 -16 -16 -13 -30 -21 -30 -19 0 3
-15 -10 -32 -28 -18 -18 -37 -30 -43 -26 -6 4 -7 -1 -3 -12 3 -10 3 -15 -2
-11 -4 4 -14 0 -21 -10 -9 -11 -13 -13 -14 -4 0 7 -4 10 -10 7 -5 -3 -10 -2
-10 4 0 6 -7 7 -17 4 -11 -4 -14 -3 -9 5 5 8 0 12 -13 12 -10 0 -21 3 -23 8
-3 8 -82 52 -92 52 -4 0 -4 -5 -1 -11 4 -6 -2 -5 -13 2 -12 7 -19 16 -17 19 2
3 -6 7 -18 7 -12 1 -23 7 -25 12 -2 5 -10 7 -18 4 -8 -3 -14 0 -14 7 0 6 -5 8
-10 5 -6 -4 -18 -1 -27 7 -14 11 -16 11 -8 -2 6 -12 5 -13 -6 -2 -7 6 -21 12
-31 12 -10 0 -18 6 -18 13 0 8 -4 7 -10 -3 -5 -8 -10 -10 -10 -4 0 7 -12 12
-27 13 -54 1 -63 2 -63 10 0 10 -41 8 -57 -2 -7 -5 -13 -4 -13 1 0 5 -9 12
-20 15 -13 3 -18 1 -13 -5 3 -7 1 -8 -6 -4 -21 13 -61 17 -61 6 0 -6 -5 -8
-12 -4 -18 11 -108 12 -108 1 0 -5 -7 -4 -15 3 -10 9 -15 9 -15 1 0 -6 -5 -11
-11 -11 -5 0 -7 6 -3 13 6 9 5 9 -8 0 -8 -7 -18 -10 -21 -6 -4 3 -12 1 -20 -5
-7 -6 -25 -9 -40 -8 -15 2 -27 0 -27 -4 0 -4 -10 -7 -22 -7 -43 -1 -49 -3 -42
-15 5 -9 2 -9 -9 1 -12 9 -17 10 -17 2 0 -7 -4 -9 -10 -6 -6 3 -10 2 -10 -4 0
-6 -7 -7 -17 -4 -11 5 -14 3 -8 -6 6 -10 3 -11 -14 -2 -11 7 -21 8 -21 3 0 -4
-10 -8 -22 -9 -11 -1 -24 -6 -27 -11 -8 -12 -52 -27 -69 -23 -7 1 -15 -5 -18
-13 -3 -9 -10 -13 -15 -10 -5 3 -9 0 -9 -5 0 -6 -3 -10 -7 -9 -12 4 -73 -26
-73 -35 0 -4 -13 -13 -30 -18 -16 -6 -30 -15 -30 -21 0 -5 -5 -6 -10 -3 -5 3
-10 1 -10 -5 0 -6 -5 -8 -10 -5 -5 3 -10 -1 -10 -9 0 -9 -6 -13 -14 -10 -9 3
-21 -5 -31 -20 -10 -14 -21 -23 -26 -20 -5 3 -9 -2 -9 -11 0 -9 -4 -14 -9 -10
-6 3 -15 -4 -21 -15 -6 -11 -17 -20 -24 -20 -7 0 -24 -15 -37 -34 -13 -19 -26
-33 -30 -30 -4 2 -13 -4 -20 -13 -10 -11 -10 -14 -2 -9 9 5 11 2 7 -9 -4 -9
-9 -14 -11 -11 -7 7 -32 -18 -26 -26 2 -5 -3 -8 -12 -8 -9 0 -14 -4 -10 -9 3
-6 -3 -14 -12 -20 -10 -6 -15 -11 -11 -11 5 0 0 -9 -10 -19 -32 -36 -42 -50
-42 -60 0 -6 -8 -14 -17 -20 -10 -5 -17 -13 -16 -18 6 -17 -9 -43 -20 -36 -7
4 -5 -2 3 -12 8 -10 10 -16 4 -12 -10 6 -22 -10 -26 -33 -1 -3 -8 -11 -17 -18
-13 -11 -13 -12 -1 -7 13 6 13 5 0 -7 -8 -7 -15 -17 -16 -23 -1 -26 -17 -64
-25 -60 -4 3 -6 -3 -4 -15 2 -11 -1 -22 -6 -25 -5 -4 -7 -10 -4 -15 3 -5 1
-11 -5 -15 -6 -4 -8 -11 -5 -16 4 -5 1 -9 -5 -9 -6 0 -8 -4 -5 -10 3 -5 1 -18
-4 -29 -8 -14 -8 -21 2 -24 9 -4 9 -6 -1 -6 -7 -1 -10 -5 -7 -11 3 -5 1 -10
-6 -10 -7 0 -9 -3 -6 -7 4 -3 1 -13 -6 -21 -10 -13 -9 -14 3 -7 13 8 13 7 1
-8 -7 -9 -11 -17 -8 -17 3 0 1 -16 -3 -35 -5 -23 -4 -36 4 -39 7 -3 6 -5 -3
-5 -11 -1 -11 -4 -1 -16 10 -12 10 -15 0 -15 -7 0 -10 -7 -6 -16 4 -9 2 -13
-5 -8 -8 4 -9 -1 -3 -17 8 -25 8 -27 1 -71 -2 -16 0 -28 4 -28 5 0 4 -12 -1
-26 -13 -32 -13 -37 1 -28 6 4 9 -1 8 -12 -2 -11 0 -25 5 -33 6 -10 5 -12 -2
-7 -7 4 -12 3 -12 -3 0 -5 5 -13 11 -17 8 -4 7 -9 -2 -15 -11 -7 -11 -9 -1 -9
7 0 11 -4 7 -9 -3 -5 -1 -13 5 -16 8 -5 7 -11 -1 -21 -9 -11 -9 -14 1 -14 7 0
10 -6 7 -14 -3 -8 -1 -17 6 -20 9 -3 9 -5 -1 -5 -9 -1 -8 -9 5 -28 14 -21 15
-25 3 -18 -9 5 -7 -1 5 -15 11 -13 14 -20 8 -16 -15 9 -18 -10 -3 -19 6 -4 8
-11 5 -16 -4 -5 -1 -9 5 -9 6 0 9 -4 6 -9 -3 -4 3 -24 13 -44 10 -20 14 -34 7
-30 -6 4 -5 -1 3 -10 7 -9 10 -17 7 -17 -4 0 0 -7 8 -16 9 -8 14 -19 11 -24
-3 -5 0 -10 5 -12 6 -2 12 -13 13 -25 0 -12 5 -19 9 -17 4 3 8 0 8 -5 0 -20 3
-26 19 -38 9 -7 12 -13 6 -13 -5 0 -5 -4 2 -8 6 -4 13 -14 15 -22 2 -8 10 -22
19 -30 9 -8 22 -26 29 -39 14 -28 18 -33 57 -79 69 -82 154 -162 165 -156 6 4
8 3 5 -3 -3 -5 6 -18 20 -29 15 -10 32 -25 39 -31 7 -7 17 -13 23 -13 5 0 17
-10 25 -22 9 -12 16 -17 16 -10 0 8 7 6 19 -5 30 -27 45 -38 61 -41 8 -2 17
-8 18 -13 2 -5 8 -7 13 -3 5 3 9 0 9 -5 0 -6 7 -11 16 -11 8 0 13 -4 10 -9 -4
-5 3 -7 14 -4 11 3 20 0 20 -6 0 -6 9 -11 19 -11 10 0 21 -6 24 -13 3 -8 18
-13 36 -12 17 1 31 -2 31 -8 0 -5 7 -7 15 -3 8 3 15 1 15 -5 0 -6 5 -7 10 -4
6 3 10 2 10 -2 0 -5 10 -10 22 -10 13 -1 24 -7 26 -13 3 -8 8 -7 18 1 11 9 14
9 14 0 0 -7 4 -10 9 -6 5 3 12 1 16 -5 4 -6 22 -9 40 -7 19 3 36 -1 39 -7 3
-6 5 -5 5 3 1 9 5 10 14 4 22 -18 110 -37 101 -22 -2 4 5 7 16 6 11 -1 20 -5
20 -10 0 -5 7 -4 15 3 12 10 15 10 15 -1 0 -9 3 -10 8 -4 10 15 42 18 42 4 0
-8 5 -8 16 2 13 10 17 10 24 0 6 -11 8 -11 12 0 5 16 40 19 50 4 5 -6 8 -5 8
4 0 11 3 11 15 1 12 -10 15 -9 15 6 0 13 3 15 8 7 8 -12 36 -12 48 0 4 4 14 1
22 -6 13 -9 14 -9 8 1 -4 7 -1 12 8 13 29 3 34 4 42 11 4 5 12 8 18 8 6 0 4
-5 -4 -10 -8 -5 -10 -10 -4 -10 6 0 17 7 24 15 7 9 21 13 31 10 11 -4 19 -2
19 5 0 6 6 10 13 9 25 -3 38 1 32 10 -3 6 3 8 14 6 11 -2 22 3 26 13 5 14 7
14 15 2 7 -11 10 -12 10 -2 0 7 5 10 10 7 6 -3 10 -2 10 3 0 6 7 13 16 16 10
4 13 2 8 -7 -4 -6 2 -4 14 7 20 18 23 18 47 2 15 -10 35 -25 45 -34 37 -34 48
-41 54 -35 3 4 6 -1 6 -10 0 -9 7 -17 15 -17 8 0 15 -4 15 -10 0 -5 5 -10 11
-10 6 0 24 -13 39 -30 15 -16 31 -30 36 -30 7 0 12 -4 67 -54 15 -14 32 -26
38 -26 6 0 7 -4 4 -10 -6 -9 8 -14 28 -11 4 0 7 -6 7 -14 0 -8 4 -15 10 -15 5
0 18 -10 30 -22 11 -12 20 -18 20 -14 0 4 6 1 14 -6 8 -7 12 -16 9 -20 -2 -5
5 -8 17 -8 14 0 19 -4 14 -12 -5 -8 -2 -9 9 -5 10 3 17 2 17 -4 0 -13 25 -39
39 -39 5 0 16 -8 23 -17 7 -10 22 -23 33 -30 11 -6 19 -16 17 -23 -1 -6 2 -9
7 -6 5 3 25 -10 45 -29 20 -19 36 -29 36 -22 0 6 6 3 12 -8 20 -34 36 -47 41
-32 3 7 6 5 6 -5 1 -10 4 -18 9 -18 4 0 21 -12 37 -27 16 -16 32 -28 35 -28 3
0 17 -13 33 -28 15 -16 31 -26 36 -23 4 3 13 -6 19 -19 7 -14 18 -25 26 -25 9
0 20 -9 26 -20 6 -11 16 -20 23 -20 7 0 19 -9 27 -20 8 -11 19 -20 24 -20 5 0
23 -15 39 -32 17 -18 27 -26 23 -18 -4 8 1 6 11 -6 10 -12 29 -26 41 -33 13
-7 19 -17 16 -23 -4 -6 -3 -8 4 -4 6 3 18 -4 27 -16 8 -13 18 -22 20 -20 3 1
11 2 18 2 8 0 7 -4 -3 -11 -12 -9 -11 -10 8 -6 12 3 22 1 22 -5 0 -14 26 -38
34 -31 3 4 6 -1 6 -10 0 -10 7 -17 15 -17 9 0 18 -6 21 -14 3 -8 14 -16 25
-19 10 -3 23 -16 28 -29 6 -13 10 -16 11 -8 0 11 5 10 18 -6 9 -12 27 -27 40
-33 12 -7 22 -19 23 -29 0 -11 2 -13 6 -4 4 9 16 2 39 -23 19 -21 34 -34 34
-30 0 4 11 -4 25 -19 14 -15 25 -24 25 -21 0 3 6 0 14 -7 8 -7 11 -17 8 -22
-3 -5 0 -6 5 -3 6 4 25 -8 43 -26 18 -17 30 -27 27 -21 -6 11 58 13 68 2 3 -2
27 -2 55 2 29 4 54 2 60 -4 7 -7 10 -7 10 1 0 13 32 12 42 -2 5 -7 8 -7 8 0 0
10 56 13 65 3 3 -2 27 -2 55 2 29 4 54 2 60 -4 7 -7 10 -7 10 1 0 13 32 12 42
-2 5 -7 8 -7 8 0 0 10 56 13 65 4 2 -3 29 -2 60 1 33 4 59 2 66 -4 9 -8 10 -8
6 0 -8 14 82 7 97 -7 6 -6 5 -9 -3 -9 -10 0 -11 -3 -2 -13 6 -8 8 -17 5 -20
-4 -4 1 -18 10 -32 9 -14 14 -30 11 -35 -3 -5 5 -16 17 -24 12 -9 19 -16 16
-16 -4 0 10 -17 30 -39 20 -21 39 -37 41 -35 2 2 12 -6 22 -18 11 -11 19 -18
19 -13 0 4 7 2 15 -5 8 -6 19 -9 25 -5 5 3 10 1 10 -5 0 -6 5 -8 10 -5 6 3 10
1 10 -5 0 -6 4 -9 9 -5 5 3 12 2 15 -3 3 -5 30 -8 60 -7 38 1 53 -2 49 -9 -4
-6 1 -5 10 3 9 7 17 10 17 5 0 -4 5 -3 12 4 16 16 31 15 23 0 -4 -7 0 -5 8 4
8 10 26 19 40 20 14 1 23 7 20 12 -4 5 1 7 11 3 9 -4 15 -3 12 2 -3 5 2 15 11
22 14 12 16 12 8 0 -5 -10 -4 -12 3 -7 7 4 12 14 12 22 0 8 6 14 14 14 8 0 17
7 20 16 3 8 11 12 17 8 8 -4 9 -3 5 5 -4 6 0 14 8 17 9 3 16 12 16 19 0 7 6
18 14 25 8 6 13 17 10 25 -3 7 0 16 5 20 6 3 9 11 6 16 -4 5 -1 9 5 9 6 0 8 5
5 10 -3 6 0 10 7 10 9 0 9 3 -2 10 -8 5 -10 10 -4 10 8 0 11 20 10 55 0 30 -4
55 -7 55 -3 0 -5 12 -5 28 1 15 -5 36 -14 46 -13 17 -13 19 0 12 9 -5 8 -2 -2
7 -10 8 -15 17 -11 20 3 4 1 7 -5 7 -6 0 -13 8 -17 19 -8 25 -40 61 -54 61 -7
0 -9 5 -6 10 3 6 2 10 -4 10 -6 0 -20 10 -32 23 -12 12 -19 17 -16 11 4 -7
-10 -3 -30 7 -20 10 -40 16 -45 13 -5 -3 -7 0 -6 6 2 7 -7 14 -20 16 -17 3
-21 0 -16 -8 5 -9 3 -9 -9 1 -9 7 -25 11 -36 8 -10 -2 -26 0 -35 5 -11 6 -16
5 -16 -3 0 -7 -10 -9 -25 -7 -14 3 -25 1 -25 -3 0 -5 -11 -9 -25 -9 -14 0 -25
-4 -25 -10 0 -5 -3 -9 -7 -8 -15 4 -53 -13 -53 -23 0 -6 -4 -8 -9 -5 -5 3 -15
-2 -22 -11 -12 -14 -12 -16 1 -8 12 7 13 6 2 -6 -7 -8 -18 -14 -25 -14 -7 -1
-11 -6 -10 -13 2 -7 -4 -12 -12 -12 -16 0 -38 -34 -28 -44 3 -3 1 -6 -5 -6 -7
0 -12 -7 -12 -16 0 -9 -5 -12 -12 -8 -8 5 -9 2 -5 -9 3 -9 2 -19 -4 -23 -6 -3
-8 -12 -5 -20 3 -8 1 -14 -5 -14 -6 0 -7 -5 -3 -12 5 -7 2 -9 -8 -5 -9 3 -21
0 -27 -6 -9 -9 -14 -9 -20 2 -7 10 -13 11 -30 2 -11 -7 -21 -8 -21 -3 0 5 -7
9 -15 9 -8 0 -15 -4 -15 -8 0 -9 -33 -6 -41 5 -4 4 -16 3 -28 -3 -11 -7 -21
-8 -21 -3 0 5 -7 9 -15 9 -8 0 -15 -4 -15 -8 0 -9 -33 -6 -41 4 -3 4 -18 3
-32 -2 -18 -7 -27 -7 -27 0 0 6 -7 6 -20 -1 -14 -8 -20 -8 -20 0 0 8 -6 8 -20
0 -14 -8 -20 -8 -20 0 0 8 -6 8 -20 0 -11 -6 -20 -7 -20 -2 0 10 -30 9 -47 -1
-6 -4 -15 -3 -18 3 -5 8 -11 8 -20 0 -9 -8 -14 -8 -17 1 -3 9 -9 9 -26 0 -15
-8 -22 -8 -22 -1 0 7 -6 8 -18 1 -11 -6 -24 -6 -35 0 -9 6 -17 6 -17 2 0 -5
-9 -9 -19 -9 -11 0 -17 4 -14 9 3 5 0 8 -8 5 -15 -5 -50 22 -43 34 3 4 -2 8
-11 8 -18 0 -45 23 -45 39 0 6 -7 7 -17 4 -11 -4 -14 -3 -9 5 4 7 2 12 -5 12
-6 0 -24 15 -40 33 -16 17 -29 28 -29 24 0 -4 -11 4 -25 19 -16 17 -25 22 -26
13 0 -8 -5 -5 -11 7 -5 12 -21 27 -34 33 -13 6 -24 15 -24 21 0 5 -7 10 -16
10 -8 0 -12 5 -9 10 3 5 -1 10 -9 10 -9 0 -16 4 -16 10 0 5 -14 17 -30 25 -18
9 -28 21 -24 27 4 6 3 8 -4 4 -6 -3 -21 4 -34 17 -13 13 -36 31 -51 41 -15 9
-25 21 -22 26 4 6 -1 10 -9 10 -9 0 -16 6 -16 13 0 8 -4 7 -10 -3 -8 -13 -10
-13 -10 2 0 9 -9 20 -20 23 -11 3 -20 13 -20 21 0 8 -4 12 -10 9 -5 -3 -10 -1
-10 4 0 6 -7 11 -15 11 -8 0 -15 5 -15 10 0 6 -7 10 -15 10 -8 0 -15 7 -15 17
0 9 -3 14 -6 10 -8 -7 -34 17 -34 32 0 5 -9 8 -20 6 -14 -3 -20 2 -20 16 0 10
-7 19 -15 19 -8 0 -15 4 -15 10 0 5 -6 9 -12 7 -7 -1 -12 4 -11 11 2 6 -6 12
-18 12 -11 0 -17 5 -14 10 3 6 -1 10 -9 10 -8 0 -20 9 -26 20 -6 11 -16 20
-23 20 -7 0 -19 9 -27 20 -8 11 -22 20 -32 20 -10 0 -17 3 -17 8 4 21 -3 31
-23 34 -13 2 -22 9 -21 15 1 6 -11 16 -27 22 -17 5 -30 17 -30 26 0 9 -4 14
-9 10 -6 -3 -14 3 -20 12 -6 10 -11 14 -11 9 0 -5 -15 8 -34 29 -23 25 -35 32
-39 23 -4 -9 -6 -7 -6 5 -1 10 -9 17 -21 17 -11 0 -20 6 -20 14 0 7 -13 19
-29 26 -21 8 -28 17 -24 28 4 10 2 13 -5 8 -7 -4 -12 -2 -12 3 0 6 -6 11 -13
11 -7 0 -18 9 -25 20 -7 12 -17 18 -22 15 -6 -3 -10 1 -10 9 0 8 -5 18 -12 22
-7 5 -8 2 -3 -7 5 -8 -3 -4 -17 9 -13 12 -28 19 -33 15 -4 -5 -5 0 -2 10 4 11
3 16 -3 12 -6 -3 -10 -1 -10 4 0 6 -7 11 -16 11 -8 0 -12 5 -9 10 3 5 -1 10
-9 10 -8 0 -20 8 -25 18 -6 9 -11 14 -11 10 0 -5 -8 0 -18 10 -11 9 -17 20
-15 24 2 4 -2 5 -10 2 -9 -3 -24 7 -37 23 -12 15 -24 27 -26 26 -2 -2 -4 -1
-4 2 0 3 0 12 0 20 0 9 11 20 24 25 13 5 38 22 55 39 17 17 31 27 31 24 0 -4
14 9 31 28 18 19 29 27 25 19 -5 -9 -2 -9 7 2 8 10 17 15 20 11 4 -3 7 0 7 7
0 7 19 30 42 52 23 21 38 38 34 38 -4 0 -1 6 6 14 7 8 17 11 22 8 5 -3 6 0 3
5 -4 6 5 23 18 37 14 15 22 32 19 38 -4 6 -3 9 2 6 8 -4 44 25 44 37 0 3 0 10
0 16 0 5 4 8 9 5 5 -3 14 8 20 24 5 17 7 30 3 30 -4 1 4 7 18 15 14 8 21 14
16 15 -5 0 -2 8 5 17 12 14 12 16 -1 9 -11 -6 -11 -4 1 6 9 7 15 21 13 31 -1
9 2 15 6 12 5 -3 14 9 19 27 5 18 10 27 10 21 1 -7 10 -13 21 -13 11 0 20 -5
20 -11 0 -8 4 -8 14 0 11 9 16 9 22 0 5 -8 3 -9 -6 -4 -9 6 -11 4 -6 -4 5 -7
14 -10 22 -7 8 3 14 1 14 -3 0 -5 11 -8 25 -7 13 2 23 -2 22 -8 -1 -6 4 -10
11 -9 6 2 12 -1 12 -7 0 -5 7 -7 15 -4 8 4 15 1 15 -7 0 -7 3 -9 7 -6 3 4 12
2 20 -4 7 -6 13 -8 13 -5 0 4 10 1 23 -6 12 -7 25 -11 30 -10 4 1 7 -2 7 -8 0
-5 7 -7 15 -4 8 4 15 1 15 -5 0 -6 3 -10 8 -9 15 3 62 -15 62 -24 0 -6 8 -4
17 3 11 10 14 10 9 2 -4 -8 -1 -13 8 -13 9 0 16 -4 16 -10 0 -5 6 -7 14 -4 7
3 20 -1 27 -8 8 -7 20 -13 27 -14 28 -2 33 -4 28 -13 -3 -5 0 -9 7 -8 36 1 57
-4 52 -13 -3 -6 1 -7 9 -4 9 3 16 1 16 -5 0 -6 7 -8 15 -5 8 4 15 1 15 -6 0
-6 5 -8 12 -4 6 4 17 -1 25 -11 7 -11 13 -13 13 -6 0 7 5 9 10 6 6 -4 8 -10 6
-14 -3 -3 3 -7 12 -8 9 -1 26 -4 37 -6 11 -3 24 -6 28 -6 5 -1 5 -6 1 -13 -4
-6 -3 -8 3 -5 5 3 22 0 37 -8 14 -8 24 -10 21 -5 -3 6 1 7 9 4 9 -3 16 -10 16
-16 0 -5 5 -6 10 -3 6 3 10 1 10 -4 0 -6 3 -10 8 -10 23 4 42 -2 36 -12 -5 -8
-1 -8 14 0 17 9 23 8 31 -6 6 -10 11 -13 11 -8 0 6 4 4 9 -3 5 -8 20 -15 34
-15 14 -1 24 -4 22 -8 -2 -3 16 -11 41 -18 24 -7 44 -17 44 -22 0 -5 7 -6 15
-3 8 4 15 1 15 -5 0 -6 7 -8 15 -5 8 4 15 1 15 -5 0 -6 11 -11 25 -11 14 0 25
-5 25 -11 0 -5 5 -7 10 -4 6 3 10 1 10 -5 0 -6 4 -9 8 -6 5 3 21 -1 36 -9 14
-8 34 -11 43 -8 11 4 14 3 9 -5 -5 -8 2 -12 19 -12 17 0 24 -4 19 -12 -4 -6
-3 -8 3 -5 5 3 22 0 36 -8 28 -15 30 -15 48 -15 5 0 7 -5 3 -11 -4 -7 2 -7 17
1 13 7 21 9 16 5 -8 -10 63 -46 75 -39 5 3 8 1 8 -4 0 -9 9 -11 53 -14 12 -1
25 -6 28 -11 4 -5 13 -6 20 -1 21 13 59 14 59 1 0 -7 4 -6 10 3 9 13 10 13 10
0 0 -13 1 -13 10 0 7 11 10 11 10 2 0 -7 5 -10 12 -6 17 11 68 13 68 2 0 -5
10 -4 21 3 12 6 19 7 16 2 -3 -5 3 -9 13 -9 10 0 16 4 14 8 -3 4 -1 8 5 8 5 0
13 -5 16 -10 4 -6 12 -7 18 -3 18 11 37 12 37 2 0 -6 9 -5 21 2 16 8 20 8 14
-1 -6 -9 -2 -9 14 -1 15 8 21 9 21 1 0 -6 5 -8 12 -4 21 13 58 13 58 1 0 -7 4
-6 10 3 7 11 10 11 10 2 0 -10 5 -10 21 -1 16 8 20 8 14 -1 -6 -9 -2 -9 14 -1
15 8 21 9 21 1 0 -6 5 -8 12 -4 19 12 58 14 58 3 0 -6 7 -6 19 0 17 9 19 7 17
-18 -1 -18 5 -34 15 -42 9 -7 15 -18 12 -25 -3 -7 5 -23 16 -35 12 -13 21 -29
21 -36 0 -8 5 -11 10 -8 6 3 10 -1 10 -9 0 -9 14 -22 30 -31 17 -9 30 -21 30
-28 0 -8 4 -7 10 3 8 13 10 13 10 -1 0 -9 7 -20 16 -23 9 -4 13 -2 8 5 -3 6 5
4 18 -5 14 -9 28 -13 31 -9 4 3 7 1 7 -6 0 -7 5 -9 10 -6 6 3 10 2 10 -3 0 -5
14 -8 30 -7 17 1 30 -2 30 -7 0 -5 5 -6 10 -3 6 4 7 12 3 18 -5 8 -2 8 9 -1 8
-7 24 -9 33 -5 13 5 16 3 10 -6 -4 -8 2 -7 17 3 14 9 28 13 31 9 4 -3 17 2 29
13 13 12 18 13 13 4 -7 -12 -6 -13 7 -3 8 7 19 9 23 5 5 -4 6 -2 3 3 -3 6 0
16 8 23 8 7 14 10 14 6 0 -3 6 -1 13 5 8 6 17 8 20 4 4 -3 7 1 7 11 0 9 4 15
8 12 11 -6 42 30 42 49 0 8 8 19 18 24 9 6 13 11 8 11 -6 0 -1 7 10 16 10 8
13 12 5 9 -9 -6 -9 -1 3 17 9 14 13 28 9 31 -3 4 -1 7 5 7 6 0 9 7 5 17 -4 9
-2 14 3 11 5 -4 9 7 9 23 1 16 -3 29 -8 29 -4 0 -5 6 -1 12 10 15 9 47 -1 70
-4 9 -4 22 0 28 3 5 1 10 -5 10 -6 0 -8 5 -5 10 3 6 0 10 -7 10 -9 0 -9 3 2
10 13 9 13 10 0 10 -14 0 -45 54 -41 73 1 5 -2 6 -7 3 -5 -3 -15 6 -22 19 -7
13 -17 22 -22 19 -5 -3 -12 3 -15 15 -3 12 -10 21 -15 21 -5 0 -6 -6 -3 -12 4
-7 0 -5 -8 5 -8 9 -19 17 -26 17 -6 0 -11 4 -11 9 0 5 -7 12 -16 15 -10 4 -13
2 -9 -7 4 -6 0 -4 -8 6 -9 10 -18 18 -21 18 -31 -4 -46 1 -40 12 5 9 4 9 -6 0
-9 -8 -19 -9 -31 -3 -12 7 -20 6 -25 -1 -4 -8 -9 -7 -15 2 -5 8 -9 9 -9 4 0
-6 -14 -12 -31 -13 -18 -1 -37 -6 -43 -10 -6 -3 -19 -5 -28 -4 -10 2 -18 -2
-18 -8 0 -6 -4 -8 -10 -5 -5 3 -10 1 -10 -5 0 -6 -4 -8 -10 -5 -5 3 -10 1 -10
-6 0 -7 -3 -10 -6 -7 -7 7 -60 -44 -56 -54 1 -5 -5 -8 -13 -8 -8 0 -15 -4 -15
-9 0 -4 -12 -21 -27 -36 -16 -16 -21 -25 -14 -20 9 5 6 -4 -7 -22 -12 -17 -19
-33 -15 -37 3 -3 2 -6 -4 -6 -6 0 -9 -11 -8 -24 2 -13 -1 -29 -6 -37 -5 -8 -9
-9 -9 -4 0 6 -67 10 -180 10 -99 0 -180 -3 -180 -7 0 -4 -13 -3 -30 2 -17 5
-30 5 -30 0 0 -5 -13 -5 -30 0 -19 5 -32 5 -36 -2 -4 -6 -10 -5 -15 3 -7 12
-9 12 -9 0 0 -11 -3 -11 -15 -1 -12 10 -15 10 -15 0 0 -10 -3 -10 -15 0 -11 9
-15 9 -15 1 0 -8 -5 -9 -19 -1 -14 7 -21 6 -24 -3 -4 -9 -6 -9 -6 1 -1 6 -6
12 -12 12 -5 0 -7 -6 -3 -12 6 -10 5 -10 -7 -1 -12 10 -18 10 -27 1 -9 -9 -12
-9 -12 1 0 7 -4 9 -10 6 -5 -3 -10 -1 -10 4 0 6 -12 11 -26 11 -14 0 -23 4
-20 9 3 5 -3 11 -14 14 -13 3 -18 1 -13 -6 3 -7 -3 -4 -14 6 -11 9 -22 15 -25
12 -3 -3 -11 1 -18 10 -7 8 -22 15 -34 15 -12 0 -28 6 -35 13 -11 10 -12 9 -6
-3 6 -11 3 -10 -12 3 -11 9 -23 14 -26 10 -4 -3 -7 -2 -7 3 0 5 -10 10 -22 11
-11 1 -25 8 -29 15 -5 7 -9 9 -9 4 0 -5 -7 -3 -15 4 -8 7 -15 9 -15 6 0 -4 -7
0 -16 9 -14 13 -19 14 -25 4 -6 -11 -9 -10 -14 2 -3 8 -15 16 -27 16 -12 1
-24 7 -28 14 -4 6 -13 8 -19 5 -6 -4 -11 -2 -11 5 0 7 -3 10 -6 6 -4 -3 -19 0
-35 9 -16 8 -29 11 -29 7 0 -5 -4 -3 -8 3 -4 7 -18 14 -32 15 -30 5 -50 20
-42 34 2 6 -1 5 -8 -2 -11 -10 -16 -9 -27 5 -9 10 -12 11 -7 2 7 -13 6 -13 -9
-1 -10 8 -20 11 -23 8 -4 -3 -16 3 -27 14 -15 14 -23 16 -28 7 -6 -9 -10 -8
-15 5 -3 9 -10 14 -15 11 -6 -3 -16 0 -24 6 -8 6 -19 9 -24 6 -5 -4 -14 1 -19
10 -6 10 -16 15 -25 11 -9 -3 -21 1 -27 8 -7 8 -16 13 -20 10 -5 -3 -11 -1
-15 5 -4 6 -11 8 -16 5 -5 -4 -9 -2 -9 3 0 5 -19 15 -42 22 -24 8 -48 18 -55
23 -7 5 -17 6 -23 2 -5 -3 -10 -2 -10 4 0 6 -12 14 -27 17 -16 4 -34 12 -42
18 -12 9 -13 8 -6 -4 5 -9 -1 -7 -14 5 -13 11 -32 19 -43 17 -11 -2 -18 1 -14
6 3 6 -1 13 -10 16 -9 4 -13 2 -8 -5 4 -7 1 -10 -7 -7 -8 3 -13 10 -12 16 1 5
-7 8 -17 5 -12 -3 -20 0 -20 6 0 7 -4 10 -9 6 -5 -3 -12 -1 -16 5 -4 6 -11 8
-16 5 -5 -4 -9 -2 -9 2 0 5 -10 9 -22 10 -11 1 -25 7 -29 14 -4 7 -14 9 -23 6
-9 -4 -16 -2 -16 4 0 6 -6 9 -14 6 -8 -3 -17 2 -21 11 -5 14 -7 14 -15 2 -8
-13 -10 -13 -10 0 0 10 -10 16 -26 18 -14 1 -35 8 -46 16 -11 8 -26 12 -33 9
-14 -5 -15 13 -2 34 4 6 4 18 1 27 -4 10 -1 16 7 16 7 0 9 3 6 6 -3 4 -2 16 4
27 9 15 8 18 -3 11 -10 -6 -11 -5 -1 8 7 8 10 18 6 21 -3 4 -2 7 4 7 6 0 8 11
5 25 -2 14 0 25 6 25 11 0 11 18 -1 38 -5 7 -3 12 4 12 7 0 10 3 6 6 -3 3 -2
17 3 30 6 15 6 26 -1 30 -15 9 7 31 29 29 9 0 23 -4 30 -9 6 -4 17 -4 24 0 20
13 58 13 58 1 0 -8 3 -8 12 1 15 15 32 16 22 1 -5 -8 -1 -8 13 0 14 7 24 7 33
-2 8 -7 11 -8 7 -1 -7 13 50 13 71 0 6 -4 17 -4 24 0 20 13 58 13 58 1 0 -8 3
-8 12 1 15 15 32 16 22 1 -5 -8 -1 -8 13 0 14 7 24 7 33 -2 8 -8 11 -8 7 -1
-7 13 46 14 59 2 3 -4 15 -3 25 3 14 7 19 6 19 -3 0 -8 3 -9 8 -3 6 9 62 13
77 5 13 -7 31 -5 43 3 8 6 18 5 29 -4 15 -12 16 -12 8 1 -7 12 -6 13 6 4 8 -6
28 -10 44 -10 17 1 33 -3 37 -9 5 -7 8 -6 8 1 0 10 78 11 106 0 8 -3 13 -2 10
2 -7 12 108 9 116 -3 5 -7 8 -6 8 1 0 10 78 11 106 0 8 -3 13 -2 10 2 -7 12
108 9 116 -3 5 -7 8 -6 8 1 0 10 78 11 106 0 8 -3 13 -2 10 2 -7 12 108 9 116
-3 5 -7 8 -6 8 0 0 12 140 12 159 1 6 -4 11 -18 11 -32 0 -13 5 -24 11 -24 8
0 7 -6 -2 -17 -10 -11 -10 -14 -1 -9 8 5 12 1 12 -12 0 -11 7 -25 15 -32 8 -7
12 -16 9 -21 -3 -5 2 -9 10 -9 9 0 16 -4 16 -8 0 -5 9 -19 20 -32 11 -13 20
-20 20 -15 0 4 8 -2 18 -13 9 -12 24 -22 32 -24 8 -2 21 -10 28 -18 12 -13 13
-13 6 0 -6 11 -2 10 13 -3 11 -9 23 -14 26 -10 4 3 7 2 7 -3 0 -5 8 -10 18
-11 9 -1 36 -3 60 -6 25 -2 42 0 42 6 0 6 7 2 16 -9 8 -10 13 -13 9 -6 -6 12
2 14 52 15 12 0 20 4 17 8 -3 5 3 9 14 9 11 0 32 10 48 22 16 13 25 16 20 8
-4 -8 2 -4 13 9 12 13 21 20 21 17 0 -3 9 3 20 14 11 11 19 21 18 23 -1 1 9
15 22 30 14 16 24 32 23 35 -1 4 8 18 20 31 12 13 16 21 10 17 -7 -4 -13 -2
-13 3 0 6 4 11 9 11 6 0 10 8 10 18 1 9 3 46 5 82 2 36 -1 71 -6 78 -6 6 -7
12 -3 12 4 0 1 8 -6 17 -12 15 -12 16 1 8 12 -7 13 -6 3 7 -7 8 -9 19 -5 23 4
5 1 5 -5 1 -9 -5 -13 1 -13 20 0 15 -3 24 -7 21 -7 -8 -44 43 -38 52 3 7 -28
38 -33 33 -2 -2 -17 8 -33 22 -16 15 -34 24 -39 21 -6 -3 -10 0 -10 7 0 8 -12
15 -27 16 -15 1 -30 7 -34 13 -5 8 -8 8 -13 0 -5 -8 -13 -7 -28 3 -15 11 -26
12 -40 5 -13 -7 -18 -6 -18 3 0 10 -2 10 -9 -1 -7 -11 -9 -11 -14 0 -5 12 -6
12 -6 0 -1 -11 -4 -11 -16 -1 -8 7 -15 8 -15 4 0 -5 -9 -15 -21 -22 -14 -9
-19 -10 -14 -2 5 9 1 10 -16 5 -13 -4 -26 -11 -29 -14 -3 -4 -20 -13 -37 -20
-18 -8 -33 -20 -33 -28 0 -8 -4 -11 -10 -8 -5 3 -10 1 -10 -5 0 -6 -4 -8 -10
-5 -5 3 -10 1 -10 -5 0 -6 -12 -23 -27 -37 -16 -14 -19 -19 -8 -12 13 8 10 2
-8 -17 -15 -17 -24 -33 -20 -37 3 -4 1 -7 -6 -7 -7 0 -9 -4 -6 -10 3 -5 2 -10
-4 -10 -6 0 -7 -7 -4 -17 4 -10 2 -14 -4 -10 -6 4 -10 1 -9 -6 0 -6 -3 -13 -8
-14 -5 -1 -13 -7 -17 -15 -5 -7 -9 -8 -9 -3 0 12 -49 13 -67 2 -7 -5 -13 -4
-13 0 0 5 -9 9 -20 10 -11 1 -18 -2 -16 -6 6 -10 -25 -8 -42 3 -7 4 -19 2 -27
-4 -8 -7 -15 -8 -15 -3 0 5 -9 9 -20 10 -11 1 -18 -2 -16 -6 6 -10 -25 -8 -42
3 -7 4 -19 2 -27 -4 -8 -7 -15 -8 -15 -3 0 5 -9 9 -20 10 -11 1 -18 -2 -15 -7
3 -6 -1 -7 -11 -3 -26 10 -168 10 -181 0 -8 -6 -13 -6 -13 0 0 5 -9 9 -20 10
-11 1 -18 -2 -16 -6 6 -10 -25 -8 -42 3 -7 4 -19 2 -27 -4 -8 -7 -15 -8 -15
-3 0 5 -9 9 -20 10 -11 1 -18 -2 -16 -6 6 -10 -25 -8 -42 3 -7 4 -19 2 -27 -4
-8 -7 -15 -8 -15 -3 0 5 -9 9 -20 10 -13 1 -18 -2 -14 -9 5 -7 2 -8 -5 -3 -7
4 -54 8 -104 9 -51 1 -98 5 -104 9 -8 5 -13 3 -13 -3 0 -6 -5 -8 -11 -4 -16
10 -109 11 -109 1 0 -5 -5 -5 -12 -1 -15 10 -104 8 -120 -2 -6 -4 -8 -3 -4 4
4 7 -1 10 -14 9 -11 -1 -20 -6 -20 -12 0 -6 -3 -7 -8 0 -9 13 -65 14 -74 0 -5
-6 -8 -6 -8 0 0 6 -23 10 -50 10 -28 0 -50 -4 -50 -8 0 -5 -6 -5 -12 -1 -7 5
-35 7 -63 6 -41 -1 -53 3 -63 18 -9 14 -9 20 -1 20 7 0 8 7 4 18 -4 9 -7 25
-7 35 0 10 -4 15 -10 11 -7 -4 -8 -2 -4 4 11 19 16 53 6 47 -5 -3 -8 3 -8 12
1 26 -5 47 -17 55 -6 5 -6 8 2 8 9 0 9 8 -1 33 -7 17 -11 38 -8 46 2 8 0 11
-6 8 -5 -4 -12 2 -15 13 -3 11 -1 18 4 14 5 -3 9 0 9 5 0 6 -8 11 -17 11 -13
0 -14 3 -6 11 6 6 9 17 7 24 -3 7 0 16 7 21 7 4 10 3 5 -4 -4 -7 1 -10 14 -9
11 1 20 5 20 10 0 4 5 5 10 2 6 -3 10 -2 10 2 0 5 9 14 21 21 16 11 19 11 13
1 -4 -7 8 -2 26 11 18 13 30 19 26 12 -4 -7 -3 -12 2 -12 6 0 13 7 16 16 4 9
9 14 12 11 8 -7 65 13 60 22 -3 4 4 8 15 8 11 1 17 -3 13 -8 -3 -6 3 -5 14 2
12 7 19 17 16 21 -3 4 1 5 9 2 8 -3 18 0 22 5 3 6 11 9 16 6 5 -4 9 -1 9 5 0
6 5 8 12 4 6 -4 17 1 25 11 9 14 13 15 13 4 0 -12 2 -12 9 0 5 8 16 11 25 8
10 -4 19 -1 23 9 3 8 12 13 20 10 8 -3 12 -2 9 3 -5 8 48 26 67 22 4 0 7 4 7
10 0 6 7 8 16 5 8 -3 12 -2 9 4 -3 6 3 10 14 10 11 0 23 5 26 10 4 6 11 8 16
5 5 -4 9 -1 9 4 0 6 3 10 8 9 4 -1 21 4 37 11 17 7 38 14 49 17 10 2 24 8 31
14 10 8 14 7 18 -2 4 -10 6 -10 6 0 1 6 8 12 16 12 8 0 15 5 15 11 0 5 4 8 9
5 5 -4 22 0 38 8 35 19 66 30 76 28 4 -1 7 3 7 10 0 6 3 9 6 5 3 -3 22 3 41
14 19 11 32 15 29 10 -3 -5 5 -4 18 2 13 7 22 16 18 22 -3 5 1 4 10 -3 13 -10
17 -10 22 3 3 9 10 14 15 10 5 -3 12 -1 16 5 3 5 15 10 26 10 10 0 19 5 19 11
0 5 4 8 8 5 5 -3 20 1 35 9 14 7 28 11 31 7 3 -3 6 1 6 8 0 7 3 11 6 7 3 -3
26 3 50 13 24 11 46 20 49 20 3 0 10 0 16 0 5 0 8 4 4 9 -3 6 4 8 15 6 11 -2
20 1 20 6 0 6 4 8 9 4 5 -3 16 1 24 9 8 8 17 12 21 9 3 -3 12 0 20 6 8 7 20
10 26 6 5 -3 10 -1 10 4 0 6 6 10 13 9 6 -2 11 4 9 12 -2 8 0 12 4 8 4 -4 14
-2 22 5 11 8 13 8 9 0 -5 -8 -1 -8 17 0 13 7 22 15 20 18 -2 4 5 5 16 2 12 -3
20 0 20 7 0 9 4 9 17 -1 9 -8 14 -9 10 -3 -8 13 19 27 34 18 5 -3 9 0 9 6 0 6
5 8 10 5 6 -3 10 -3 10 2 0 4 11 9 25 9 15 1 22 -2 18 -9 -4 -6 -1 -7 8 -1 21
13 100 14 92 1 -4 -6 -1 -7 8 -1 19 12 81 13 96 2 7 -5 14 -5 18 2 3 5 11 10
16 10 6 0 7 -5 3 -12 -5 -7 -3 -8 7 -3 21 14 101 16 93 3 -5 -7 -2 -8 7 -2 19
12 81 13 96 2 7 -5 14 -5 18 2 3 5 11 10 16 10 6 0 7 -5 3 -12 -5 -7 -3 -8 7
-2 20 12 83 13 91 0 6 -8 8 -8 8 1 0 6 8 10 17 9 16 -3 21 -16 26 -63 1 -13 5
-23 10 -23 4 0 7 -7 7 -15 0 -8 5 -15 11 -15 5 0 7 -4 4 -10 -3 -5 2 -10 12
-11 10 0 13 -3 6 -6 -10 -3 -10 -8 1 -19 8 -8 19 -14 25 -14 6 0 11 -5 11 -11
0 -5 -6 -7 -12 -4 -7 4 -4 0 7 -9 11 -8 26 -20 33 -26 6 -6 12 -8 12 -3 0 4 7
-2 16 -13 8 -10 13 -12 9 -4 -4 8 2 6 12 -6 10 -11 26 -20 36 -18 9 1 17 -2
17 -7 0 -6 5 -7 10 -4 6 3 10 1 10 -5 0 -7 7 -10 15 -7 8 4 17 2 20 -3 4 -6
11 -10 16 -10 6 0 7 5 3 11 -4 8 -1 8 12 2 17 -8 46 -8 114 -1 14 2 31 9 39
16 7 7 20 11 28 8 7 -3 16 1 19 9 4 8 12 15 20 15 8 0 14 5 14 12 0 6 3 9 6 6
9 -9 95 79 92 94 -2 7 4 11 12 10 8 -2 12 0 7 4 -4 4 0 18 9 32 11 17 12 22 3
16 -11 -6 -12 -5 -2 8 7 8 10 18 6 21 -3 4 -2 7 4 7 5 0 10 6 10 13 0 6 4 20
8 30 4 10 3 17 -5 17 -6 0 -8 5 -4 12 12 19 12 48 0 48 -6 0 -4 5 4 10 12 8
12 10 1 10 -8 0 -11 3 -8 6 3 4 2 16 -4 27 -8 14 -8 18 0 13 8 -5 8 0 0 18 -7
14 -16 23 -22 19 -6 -3 -7 -1 -4 5 9 14 -3 43 -14 36 -5 -3 -6 2 -3 10 3 9 2
16 -4 16 -5 0 -12 9 -15 21 -3 12 -10 18 -16 14 -7 -3 -11 3 -12 17 0 13 -3
18 -5 11 -6 -14 -44 20 -44 38 0 8 -6 7 -17 -2 -11 -10 -14 -10 -9 -1 4 7 1
12 -8 12 -9 0 -16 4 -16 10 0 5 -7 7 -15 4 -8 -4 -17 1 -21 10 -5 12 -10 14
-19 6 -9 -8 -14 -8 -17 0 -5 15 -131 15 -136 1 -3 -9 -7 -9 -18 0 -8 6 -14 7
-14 2 0 -5 -7 -10 -15 -11 -8 -1 -22 -3 -30 -4 -8 -1 -15 -5 -15 -9 0 -7 -39
-22 -53 -20 -5 1 -6 -3 -3 -8 3 -5 -2 -15 -11 -22 -14 -12 -16 -12 -9 1 4 9 2
8 -7 -2 -8 -10 -18 -14 -22 -10 -5 4 -5 2 -2 -4 3 -6 -4 -22 -16 -35 -12 -13
-22 -28 -22 -34 -1 -5 -7 -9 -15 -7 -8 2 -12 0 -8 -3 4 -4 2 -17 -5 -29 -12
-21 -14 -28 -16 -59 0 -10 -5 -15 -11 -12 -5 3 -7 0 -4 -9 5 -12 -7 -14 -75
-12 -52 2 -78 -1 -74 -7 4 -6 1 -7 -7 -2 -16 10 -178 13 -193 3 -6 -3 -20 0
-33 8 -12 9 -25 11 -28 6 -3 -5 -68 -9 -145 -9 -107 1 -144 -3 -157 -14 -16
-12 -17 -12 -10 1 4 8 1 7 -8 -4 -8 -10 -20 -15 -27 -10 -8 4 -10 3 -5 -4 5
-8 0 -12 -13 -12 -12 0 -21 -4 -21 -9 0 -6 -9 -8 -20 -6 -11 2 -20 -1 -20 -6
0 -6 -4 -7 -10 -4 -5 3 -10 2 -10 -3 0 -6 -16 -13 -35 -16 -22 -5 -33 -11 -29
-18 4 -7 3 -8 -4 -4 -7 4 -18 4 -24 -1 -7 -4 -16 -8 -20 -9 -5 -1 -10 -3 -13
-4 -7 -3 -22 -7 -36 -9 -5 0 -8 -5 -4 -10 3 -6 -4 -8 -15 -6 -11 2 -20 0 -20
-5 0 -5 -9 -7 -20 -5 -11 2 -20 0 -20 -6 0 -5 -9 -9 -21 -9 -11 0 -18 -4 -15
-9 4 -5 -3 -7 -14 -4 -12 3 -20 0 -20 -7 0 -6 -6 -10 -12 -7 -7 2 -19 -3 -26
-12 -8 -9 -11 -10 -7 -4 4 9 1 11 -9 7 -9 -3 -13 -11 -9 -17 3 -5 1 -7 -5 -4
-13 9 -44 -2 -37 -13 3 -4 -1 -8 -8 -7 -36 1 -57 -4 -52 -13 3 -6 -1 -7 -9 -4
-10 4 -16 1 -16 -7 0 -11 -2 -11 -10 1 -8 12 -10 12 -16 -3 -4 -10 -13 -16
-20 -13 -8 3 -14 0 -14 -6 0 -6 -3 -8 -7 -5 -3 4 -15 -1 -26 -10 -15 -13 -18
-14 -12 -3 7 12 6 13 -7 3 -8 -7 -18 -10 -21 -6 -4 3 -7 1 -7 -6 0 -7 -9 -11
-19 -9 -10 2 -29 -6 -42 -17 -13 -12 -19 -14 -14 -5 8 13 6 13 -8 2 -9 -8 -22
-10 -28 -6 -7 4 -9 3 -6 -3 4 -6 -1 -17 -10 -24 -12 -10 -14 -10 -9 -1 4 6 2
12 -3 12 -6 0 -11 -5 -11 -11 0 -5 -4 -8 -9 -4 -5 3 -12 1 -16 -5 -4 -6 -11
-8 -16 -5 -5 4 -9 1 -9 -6 0 -7 -3 -9 -7 -6 -3 4 -17 0 -31 -9 -18 -12 -23
-12 -17 -3 3 8 -1 5 -9 -5 -9 -11 -16 -16 -16 -11 0 5 -5 4 -11 -2 -6 -6 -18
-9 -25 -6 -8 3 -16 -2 -20 -10 -3 -9 -12 -13 -19 -11 -7 3 -19 -1 -26 -9 -7
-8 -21 -12 -31 -9 -10 2 -20 -2 -24 -12 -3 -9 -10 -13 -15 -10 -6 3 -16 0 -24
-6 -8 -7 -15 -9 -15 -6 0 4 -10 1 -22 -6 -13 -7 -26 -11 -30 -10 -5 1 -8 -3
-8 -10 0 -6 -3 -9 -6 -5 -3 3 -30 -5 -59 -18 -30 -13 -56 -21 -59 -17 -3 3 -6
0 -6 -7 0 -7 -3 -10 -8 -7 -4 2 -23 -3 -42 -11 -19 -9 -38 -15 -42 -15 -5 1
-8 -3 -8 -10 0 -6 -3 -8 -6 -5 -4 3 -16 1 -28 -5 -11 -7 -24 -11 -28 -10 -5 1
-8 -2 -8 -8 0 -5 -5 -10 -11 -10 -5 0 -7 6 -4 13 4 6 -1 3 -9 -7 -9 -11 -16
-16 -16 -11 0 4 -10 0 -22 -11 -12 -10 -18 -13 -14 -6 7 11 4 11 -12 1 -17
-10 -23 -10 -36 0 -9 7 -13 17 -10 22 3 5 -2 12 -11 15 -12 5 -13 10 -4 20 8
10 6 16 -10 26 -12 7 -21 19 -21 26 0 7 -5 10 -12 6 -6 -4 -8 -3 -4 4 3 6 -8
28 -26 48 -18 21 -27 35 -21 30 9 -5 11 -2 7 8 -3 9 -10 14 -14 11 -5 -3 -11
4 -15 15 -3 11 -11 20 -16 20 -6 0 -7 5 -4 10 3 6 -1 10 -10 10 -9 0 -13 5
-10 10 3 6 1 10 -4 10 -6 0 -11 7 -11 16 0 8 -4 13 -9 10 -4 -3 -13 5 -19 18
-6 14 -20 27 -32 31 -11 3 -18 10 -15 14 2 4 -7 14 -20 21 -14 7 -25 17 -25
22 0 4 -6 8 -14 8 -8 0 -18 9 -21 20 -4 12 -16 20 -28 21 -12 0 -16 3 -9 6 6
2 12 11 12 19 0 8 5 14 11 14 5 0 8 4 5 9 -5 8 16 23 36 25 3 1 10 5 15 10 5
5 2 6 -7 2 -8 -4 -4 1 10 11 14 10 35 28 47 39 12 12 24 19 27 16 3 -3 6 0 6
6 0 7 6 12 14 12 8 0 26 14 40 31 14 17 26 27 26 23 0 -4 9 4 21 17 12 13 26
23 31 21 6 -2 8 4 5 12 -4 11 0 14 15 11 11 -3 18 -2 15 1 -6 6 57 65 70 65 4
0 12 7 16 15 5 8 13 11 19 8 6 -4 8 -3 5 3 -4 6 2 18 13 28 11 10 20 14 20 9
0 -5 5 -1 11 9 5 9 17 17 26 17 9 0 13 3 10 6 -3 4 12 20 33 35 22 16 40 34
40 39 0 6 3 9 8 9 19 -3 33 2 27 11 -3 6 -1 10 4 10 6 0 19 8 29 18 32 31 86
72 94 72 4 0 8 7 8 15 0 8 3 14 8 13 14 -3 42 14 36 23 -3 5 1 9 9 9 8 0 22
11 31 25 11 16 22 22 33 18 9 -4 14 -2 11 3 -3 5 4 18 15 29 11 11 16 13 12 5
-5 -8 3 -4 17 10 50 49 100 90 110 90 5 0 6 5 3 10 -4 6 -3 10 2 9 21 -4 33 2
33 16 0 9 6 12 17 8 9 -4 14 -2 11 3 -3 5 0 15 8 22 8 7 14 10 14 6 0 -4 15 9
34 28 19 20 37 33 40 30 3 -3 6 0 6 6 0 7 7 12 16 12 8 0 13 4 10 8 -3 4 11
16 29 26 19 11 32 23 29 27 -3 5 -1 9 5 9 6 0 22 12 37 28 16 15 22 18 15 7
-7 -11 4 -2 24 20 21 22 34 33 29 25 -4 -8 9 2 29 23 21 21 43 34 49 31 7 -4
8 -2 4 4 -4 7 -1 12 9 12 9 0 14 4 10 9 -3 5 4 12 15 16 11 3 20 11 20 16 0 6
5 7 10 4 6 -3 10 1 10 9 0 10 6 13 17 9 10 -4 14 -2 10 4 -4 6 1 17 10 24 14
12 16 12 9 -1 -4 -8 0 -6 8 4 9 11 16 24 16 29 0 5 6 5 13 -2 10 -8 17 -7 25
1 8 8 15 8 26 -1 8 -7 17 -8 20 -3 6 10 206 10 223 -1 6 -4 14 -3 17 1 6 10
172 10 182 -1 4 -4 13 -2 19 3 13 11 50 9 61 -3 4 -4 13 -2 19 3 13 11 42 9
61 -3 6 -3 14 -3 18 1 13 12 65 10 77 -4 6 -8 9 -21 5 -29 -3 -9 -2 -13 4 -10
9 6 14 -8 11 -27 0 -5 3 -8 9 -8 6 0 10 -7 10 -15 0 -8 5 -15 10 -15 6 0 10
-4 10 -9 0 -10 58 -71 67 -71 3 0 14 -10 24 -22 11 -11 19 -16 19 -9 0 8 6 7
16 -4 9 -9 23 -14 30 -11 7 3 16 0 20 -6 5 -7 2 -8 -6 -3 -8 5 -11 4 -6 -3 4
-6 13 -9 21 -5 9 3 23 -1 32 -8 14 -12 16 -12 8 1 -8 13 -7 13 8 1 14 -11 17
-11 17 0 0 9 3 10 8 4 8 -12 27 -13 38 -3 4 4 13 3 20 -3 8 -7 14 -7 19 1 5 8
11 8 21 -1 11 -9 15 -8 20 4 3 9 12 13 20 10 8 -3 14 0 14 7 0 6 5 8 10 5 6
-3 10 -1 10 5 0 6 5 8 10 5 6 -3 10 0 10 7 0 10 2 10 9 -1 7 -11 10 -9 16 8 3
12 11 19 16 16 5 -4 9 1 9 9 0 9 3 15 8 15 19 -3 33 2 27 11 -3 6 1 10 10 10
9 0 14 4 11 9 -3 5 1 12 10 15 9 4 14 9 11 12 -3 4 1 13 9 21 8 8 12 19 9 24
-4 5 -1 9 6 9 7 0 10 3 6 6 -3 4 0 13 8 20 8 8 12 23 10 34 -2 11 2 20 8 20 7
0 6 4 -3 10 -8 5 -10 10 -4 10 6 0 11 19 11 45 0 30 -3 42 -11 38 -6 -4 -5 1
3 10 7 9 9 17 4 17 -5 0 -10 9 -11 20 -4 43 -6 49 -14 44 -4 -3 -8 4 -8 16 0
13 -4 19 -12 14 -6 -4 -8 -3 -5 4 10 15 -3 42 -20 42 -8 0 -11 5 -8 10 3 6 1
10 -5 10 -6 0 -8 5 -5 10 3 6 -1 10 -10 10 -9 0 -13 5 -10 10 3 6 -1 10 -9 10
-9 0 -16 5 -16 10 0 6 -7 10 -15 10 -9 0 -18 7 -21 15 -4 8 -10 12 -15 9 -5
-3 -9 0 -9 5 0 6 -5 11 -11 11 -5 0 -7 -6 -3 -12 4 -7 -2 -5 -13 5 -11 9 -23
14 -26 10 -4 -3 -7 -2 -7 4 0 5 -6 10 -12 10 -7 1 -34 3 -60 6 -31 3 -46 1
-42 -5 4 -6 0 -6 -13 0 -11 6 -25 7 -33 2z m102 -116 c7 0 23 -2 36 -2 15 -1
21 -6 16 -14 -4 -7 -3 -8 4 -4 7 4 19 1 27 -6 55 -47 74 -66 68 -72 -3 -3 2
-6 13 -7 10 0 13 -3 7 -6 -10 -3 -9 -8 1 -19 8 -8 13 -23 11 -34 -2 -11 0 -20
6 -20 13 0 11 -44 -3 -59 -10 -11 -10 -13 0 -7 14 8 17 -10 2 -19 -5 -3 -7
-12 -3 -20 3 -8 -1 -15 -8 -15 -7 0 -9 -3 -6 -7 4 -3 2 -12 -4 -20 -6 -7 -8
-13 -5 -13 4 0 -4 -11 -18 -23 -14 -13 -23 -27 -19 -30 3 -4 1 -7 -6 -7 -7 0
-25 -9 -41 -20 -15 -11 -30 -17 -34 -13 -3 3 -6 0 -6 -7 0 -7 -3 -10 -6 -7 -4
3 -15 2 -25 -4 -14 -7 -19 -6 -19 3 0 10 -2 10 -9 0 -11 -19 -15 -19 -34 -3
-14 11 -20 11 -34 0 -11 -10 -14 -10 -9 -1 5 8 -1 12 -18 12 -14 0 -26 5 -26
10 0 6 -7 10 -15 10 -8 0 -15 5 -15 10 0 6 -5 10 -11 10 -15 0 -59 51 -59 68
0 6 -4 12 -10 12 -5 0 -6 7 -3 17 4 10 2 14 -4 10 -8 -5 -10 3 -7 23 3 16 2
30 -3 30 -4 0 -8 11 -8 25 0 14 4 25 9 25 4 0 6 7 2 15 -3 8 -1 15 4 15 6 0 9
3 8 8 -3 12 23 82 30 81 20 -3 32 2 30 14 -2 6 3 11 10 10 6 -2 12 3 12 11 0
8 5 18 12 22 7 5 8 3 3 -7 -5 -8 1 -5 13 5 12 11 22 15 22 11 0 -5 5 -4 12 3
16 16 31 15 23 0 -4 -7 0 -5 8 5 10 12 16 14 19 6 3 -9 8 -8 19 3 10 11 16 12
21 4 4 -6 13 -11 20 -12z m460 -1293 c10 5 18 6 18 1 0 -5 6 -9 13 -10 43 -3
80 -19 72 -32 -6 -10 23 -22 36 -14 5 3 9 -2 9 -11 0 -9 4 -13 10 -10 6 3 7
-1 4 -9 -3 -9 -1 -16 5 -16 6 0 11 -5 11 -11 0 -7 8 -18 18 -25 13 -10 14 -13
3 -14 -11 0 -10 -4 5 -16 10 -8 13 -13 7 -9 -16 8 -16 0 -2 -27 9 -16 8 -19
-3 -12 -11 6 -11 5 1 -9 11 -14 11 -17 0 -17 -11 0 -11 -2 -2 -8 10 -6 10 -15
0 -43 -6 -18 -16 -37 -20 -40 -4 -3 -9 -15 -10 -27 0 -12 -3 -19 -6 -16 -2 2
-12 -7 -21 -22 -10 -14 -20 -25 -24 -25 -3 1 -21 -6 -39 -16 -34 -18 -36 -19
-80 -28 -21 -4 -27 -2 -21 6 5 8 3 9 -7 3 -18 -11 -69 -12 -63 -2 3 4 -4 8
-15 8 -12 0 -21 5 -21 10 0 6 -9 10 -20 10 -11 0 -20 5 -20 11 0 5 -5 7 -10 4
-6 -4 -9 -3 -8 2 2 5 -9 21 -25 37 -15 15 -25 32 -22 37 4 5 1 9 -5 9 -6 0 -8
5 -5 10 3 6 1 10 -5 10 -6 0 -8 5 -5 10 3 6 3 16 -2 23 -11 17 -10 96 1 89 5
-3 7 2 3 11 -3 10 -2 17 3 17 6 0 10 5 10 11 0 5 -5 7 -11 3 -6 -3 4 13 21 37
18 24 36 43 41 42 5 -2 8 1 7 6 -2 5 0 8 3 8 3 -1 13 6 23 16 10 9 26 17 37
17 13 0 18 4 13 12 -4 7 -3 8 4 4 7 -4 20 -3 29 3 10 5 24 6 33 1 8 -5 22 -4
32 1z m-3022 -185 c0 -2 -8 -10 -17 -17 -16 -13 -17 -12 -4 4 13 16 21 21 21
13z m-1056 -67 c-4 -8 3 -9 24 -4 18 3 33 2 37 -5 3 -5 12 -7 18 -3 20 13 47
13 47 2 0 -8 5 -8 15 1 9 7 15 8 15 2 0 -5 14 -9 30 -8 17 1 30 -3 30 -8 0 -6
5 -4 10 4 6 9 10 10 10 3 0 -7 10 -10 26 -7 14 3 23 1 20 -4 -3 -5 6 -10 19
-11 14 -1 36 -2 49 -3 14 -1 22 -6 20 -10 -3 -4 4 -8 16 -8 11 0 28 -4 38 -9
45 -24 87 -39 94 -35 4 3 8 0 8 -5 0 -6 7 -11 16 -11 9 0 12 -5 8 -12 -4 -7
-3 -8 4 -4 16 9 73 -25 65 -38 -4 -6 0 -5 9 2 14 11 17 10 23 -8 3 -11 11 -18
16 -15 5 4 9 1 9 -5 0 -7 7 -10 15 -6 10 3 15 -1 15 -11 0 -9 3 -14 6 -10 3 3
19 -8 35 -24 15 -16 36 -29 45 -29 10 0 15 -3 11 -6 -8 -8 16 -33 26 -27 4 2
7 -1 7 -7 0 -12 64 -71 89 -82 10 -4 11 -7 3 -7 -8 -1 -3 -12 13 -28 14 -16
32 -35 40 -44 8 -9 15 -20 15 -25 0 -6 7 -19 16 -30 8 -10 13 -12 9 -4 -4 8 1
6 9 -5 9 -11 15 -24 12 -30 -2 -6 9 -28 25 -49 16 -22 26 -43 23 -47 -3 -5 0
-9 5 -9 6 0 10 -3 9 -7 -3 -14 13 -53 22 -53 5 0 7 -9 5 -20 -2 -11 1 -20 7
-20 5 0 8 -7 4 -15 -3 -8 -1 -15 4 -15 6 0 9 -3 9 -7 -1 -5 0 -10 1 -13 2 -6
7 -26 14 -59 3 -14 11 -28 18 -33 10 -6 9 -8 -2 -8 -13 0 -13 -1 0 -10 13 -9
13 -10 0 -10 -9 0 -11 -3 -5 -8 13 -9 18 -30 16 -60 0 -13 3 -31 8 -40 6 -10
5 -24 -1 -35 -6 -13 -6 -17 0 -13 6 3 9 -4 8 -18 0 -13 -4 -22 -8 -19 -5 2 -8
-1 -8 -6 0 -6 4 -11 10 -11 11 0 9 -28 -3 -47 -5 -7 -4 -13 0 -13 5 0 9 -9 10
-20 1 -11 -1 -19 -5 -16 -4 2 -7 -22 -7 -55 0 -32 -4 -59 -8 -59 -5 0 -6 -4
-2 -9 3 -5 1 -13 -5 -16 -8 -5 -8 -11 0 -20 8 -9 8 -15 0 -20 -5 -3 -10 -17
-10 -30 0 -13 -5 -27 -11 -30 -5 -4 -8 -12 -6 -18 2 -7 -4 -29 -15 -49 -10
-21 -16 -38 -12 -38 4 0 1 -6 -5 -13 -6 -8 -8 -17 -4 -20 3 -4 1 -7 -5 -7 -7
0 -11 -3 -11 -7 3 -20 -2 -34 -10 -29 -5 4 -7 -3 -4 -14 3 -12 0 -20 -8 -20
-7 0 -10 -3 -6 -6 3 -4 -6 -23 -21 -42 -15 -20 -20 -33 -12 -28 8 4 6 0 -4 -8
-11 -9 -21 -23 -22 -33 -2 -9 -14 -26 -28 -38 -14 -12 -23 -25 -19 -28 3 -4
-2 -9 -11 -13 -9 -3 -13 -10 -10 -15 3 -5 -5 -13 -18 -18 -13 -6 -19 -10 -14
-10 4 -1 -6 -14 -23 -30 -17 -16 -31 -34 -31 -40 0 -6 -7 -7 -17 -4 -11 4 -14
3 -9 -5 4 -7 2 -12 -3 -12 -6 0 -11 -7 -11 -15 0 -9 -6 -12 -15 -9 -10 4 -15
0 -15 -10 0 -9 -8 -20 -17 -23 -18 -7 -43 -26 -74 -55 -9 -9 -20 -14 -23 -11
-3 3 -8 -1 -12 -10 -3 -9 -12 -13 -20 -10 -8 3 -14 -1 -14 -8 0 -7 -3 -9 -7
-6 -3 4 -11 0 -17 -8 -6 -7 -18 -15 -26 -17 -8 -2 -21 -9 -28 -16 -8 -7 -18
-10 -23 -7 -5 4 -9 1 -9 -5 0 -6 -4 -8 -10 -5 -5 3 -10 1 -10 -6 0 -7 -3 -9
-7 -6 -3 4 -13 1 -21 -6 -13 -10 -14 -9 -7 2 5 10 4 12 -3 7 -7 -4 -12 -14
-12 -23 0 -12 -3 -13 -14 -4 -10 8 -16 9 -21 1 -3 -5 -15 -10 -26 -10 -10 0
-19 -5 -19 -11 0 -5 -4 -8 -9 -4 -5 3 -12 1 -15 -3 -3 -5 -17 -8 -31 -7 -14 2
-25 -1 -25 -5 0 -5 -9 -7 -20 -5 -11 2 -20 0 -20 -5 0 -5 -7 -7 -15 -4 -8 3
-20 2 -27 -2 -7 -4 -44 -9 -83 -11 -38 -1 -76 -5 -83 -8 -7 -3 -11 -1 -8 3 2
4 -29 6 -70 5 -43 -1 -76 3 -80 9 -4 7 -10 5 -15 -3 -6 -9 -11 -11 -16 -4 -5
6 -17 12 -28 13 -20 2 -55 9 -65 12 -3 1 -9 2 -14 1 -4 -1 -14 4 -22 10 -8 6
-14 8 -14 4 0 -4 -10 -1 -22 7 -13 8 -31 14 -40 12 -10 -1 -18 2 -18 7 0 6 -4
7 -10 4 -5 -3 -10 -1 -10 5 0 6 -4 9 -9 5 -5 -3 -13 0 -16 6 -4 5 -13 8 -20 5
-7 -2 -16 2 -19 10 -3 9 -10 12 -16 9 -13 -8 -52 19 -43 29 4 4 -1 4 -11 0
-14 -5 -17 -4 -12 5 6 8 2 11 -10 9 -11 -2 -18 2 -17 9 2 7 -3 10 -11 7 -7 -3
-20 1 -27 8 -8 8 -22 17 -31 21 -10 3 -18 11 -18 17 0 6 -4 9 -8 6 -5 -3 -15
4 -22 15 -8 10 -22 19 -32 19 -10 0 -17 3 -17 8 3 17 -2 32 -9 30 -5 -2 -23
12 -41 30 -18 17 -37 32 -43 32 -6 0 -8 3 -5 7 4 3 -5 16 -18 29 -14 13 -25
26 -25 29 0 13 -28 34 -35 27 -5 -4 -5 -2 -1 5 3 6 2 14 -4 18 -6 4 -8 11 -5
16 4 5 -1 9 -9 9 -9 0 -18 11 -22 25 -3 14 -9 25 -13 25 -3 0 -12 9 -19 21
-11 17 -11 20 0 14 7 -3 5 0 -5 8 -10 9 -19 19 -20 24 -1 4 -6 6 -12 5 -5 -2
-7 0 -2 4 4 4 -1 16 -10 27 -10 11 -12 17 -5 13 6 -4 12 -2 12 3 0 6 -5 11
-11 11 -6 0 -9 7 -5 15 3 8 2 15 -2 15 -4 0 -13 9 -20 21 -11 17 -11 20 0 14
7 -3 5 0 -6 9 -10 8 -16 22 -13 31 4 8 1 15 -5 15 -6 0 -8 3 -5 7 4 3 1 13 -6
21 -10 13 -9 14 3 7 13 -8 13 -7 1 8 -7 9 -10 17 -5 17 5 0 3 4 -5 9 -7 5 -13
21 -13 35 0 15 -5 29 -9 32 -5 3 -7 8 -5 12 2 4 1 26 -4 50 -5 29 -4 42 4 42
6 0 2 7 -8 15 -14 11 -16 15 -5 15 11 0 11 2 1 9 -14 9 -13 32 3 44 6 4 5 10
-3 16 -8 4 -14 12 -14 16 0 4 6 12 14 16 7 5 8 9 2 9 -6 0 -10 14 -10 30 0 17
4 30 9 30 5 0 4 6 -2 14 -7 9 -8 17 -2 20 5 3 9 26 9 50 0 24 6 54 12 66 7 12
8 20 3 17 -5 -4 -10 0 -10 8 0 8 4 12 9 9 4 -3 8 8 8 24 0 16 3 32 7 36 4 3 8
12 9 19 1 7 6 21 10 31 6 15 4 17 -7 11 -11 -7 -11 -5 1 11 24 31 42 66 36 71
-3 3 2 12 10 20 8 9 13 22 10 29 -3 8 -1 14 4 14 6 0 9 6 7 13 -1 6 4 11 11 9
8 -1 11 2 6 9 -4 7 1 18 11 26 11 7 15 13 11 13 -5 0 -3 7 4 15 7 8 9 15 5 15
-5 0 2 9 14 19 13 11 20 25 16 30 -3 6 1 11 10 11 9 0 13 5 10 10 -3 6 1 13 9
16 9 3 16 12 16 20 0 7 9 18 20 24 11 6 20 18 20 26 0 8 5 12 10 9 6 -3 10 -1
10 6 0 12 50 63 50 51 1 -4 7 4 15 18 8 14 14 21 15 17 0 -4 6 -2 14 5 8 7 12
16 9 21 -2 4 1 7 6 7 6 0 20 8 30 18 33 29 50 42 56 42 3 0 23 13 43 29 20 16
47 32 60 36 12 3 20 11 17 16 -3 5 1 6 9 3 9 -3 16 -1 16 4 0 6 9 9 20 7 11
-2 18 0 15 6 -6 8 8 13 20 7 2 -2 11 6 20 17 9 11 13 14 9 6 -5 -10 -3 -12 7
-5 14 9 19 10 40 13 5 0 8 5 5 9 -4 8 6 10 64 14 17 1 29 6 27 12 -4 10 11 13
85 17 15 1 25 5 22 10 -3 5 0 9 5 9 6 0 11 -6 12 -12 0 -8 2 -9 5 -2 2 5 18 9
34 8 17 -1 32 1 35 6 2 4 16 6 30 5 14 -2 27 1 31 6 3 5 7 9 10 9 3 0 2 -5 -2
-11z m3436 -949 c8 5 19 6 25 2 10 -7 16 -8 36 -11 5 0 7 -5 4 -11 -3 -5 -1
-10 4 -10 6 0 11 5 11 11 0 7 9 0 21 -15 11 -14 27 -26 35 -26 8 0 14 -5 14
-11 0 -5 4 -7 10 -4 6 4 7 -1 3 -11 -4 -12 -3 -15 5 -10 7 4 12 1 12 -8 0 -9
5 -16 11 -16 5 0 8 -4 4 -9 -3 -5 -1 -12 4 -15 4 -3 9 -16 9 -28 2 -33 7 -56
15 -64 4 -4 2 -13 -4 -21 -6 -7 -8 -13 -4 -13 4 0 1 -8 -6 -17 -12 -15 -12
-16 1 -8 13 8 13 7 0 -9 -8 -10 -15 -25 -17 -34 -1 -9 -10 -22 -19 -29 -10 -7
-14 -13 -9 -13 4 0 -2 -9 -15 -20 -13 -11 -27 -20 -32 -20 -5 0 -6 -4 -3 -10
3 -6 -1 -7 -9 -4 -9 3 -16 1 -16 -5 0 -6 -3 -10 -7 -10 -19 3 -34 -2 -29 -9 3
-5 -9 -6 -26 -4 -24 4 -29 2 -23 -9 7 -11 6 -12 -6 -3 -8 5 -29 9 -46 9 -18
-1 -33 2 -33 7 0 4 -7 8 -15 8 -8 0 -15 4 -15 10 0 5 -7 7 -15 4 -10 -4 -15 0
-15 11 0 9 -5 13 -11 10 -11 -8 -47 25 -51 47 -2 7 -12 21 -23 31 -11 10 -14
16 -5 12 8 -4 6 1 -4 9 -15 12 -16 16 -5 16 12 0 12 2 0 9 -8 5 -11 16 -8 25
4 9 1 16 -6 16 -8 0 -6 4 3 10 9 6 10 10 3 10 -9 0 -8 10 2 41 8 23 13 45 10
49 -3 4 2 11 11 14 8 3 13 9 11 13 -5 8 23 39 33 37 3 -1 4 2 2 8 -1 5 7 12
18 15 11 3 20 10 20 15 0 5 4 7 9 4 5 -3 12 1 15 10 3 8 10 12 16 9 5 -3 10
-1 10 5 0 8 6 8 20 0 16 -9 22 -8 26 5 4 10 10 12 18 6 7 -6 18 -6 26 -1z
m121 -37 c13 -16 12 -17 -3 -4 -10 7 -18 15 -18 17 0 8 8 3 21 -13z m499
-1044 c0 -5 3 -8 8 -7 13 5 72 -24 67 -32 -3 -4 5 -10 16 -13 12 -3 18 -10 15
-16 -4 -5 3 -12 14 -16 11 -3 20 -15 20 -26 0 -10 5 -19 10 -19 6 0 10 -9 10
-20 0 -11 4 -20 8 -20 10 0 9 -51 -1 -67 -4 -6 -3 -14 3 -18 6 -4 7 -12 3 -18
-8 -12 -13 -33 -15 -54 -1 -7 -5 -10 -9 -8 -4 3 -10 -7 -13 -20 -4 -16 -11
-23 -18 -19 -8 5 -9 2 -5 -10 4 -9 3 -15 -2 -11 -13 7 -43 -24 -35 -37 5 -7 2
-8 -5 -4 -7 5 -21 0 -32 -10 -10 -9 -19 -14 -19 -9 0 4 -7 2 -15 -5 -12 -10
-15 -10 -15 1 0 8 -6 5 -15 -7 -8 -10 -15 -14 -15 -8 0 13 -50 13 -50 0 0 -5
-6 -2 -13 9 -10 13 -16 15 -22 6 -5 -9 -11 -7 -22 8 -8 12 -25 21 -39 21 -14
0 -23 4 -19 9 3 5 -4 12 -14 16 -13 4 -18 12 -14 21 3 9 0 14 -8 12 -7 -2 -15
6 -17 17 -2 11 -7 22 -11 25 -3 3 -11 19 -17 37 -9 23 -9 34 0 44 8 9 8 10 -2
5 -9 -6 -11 -1 -8 18 3 14 7 30 11 36 3 5 0 10 -7 11 -10 0 -10 2 0 6 6 2 12
11 12 18 0 22 34 75 48 75 7 0 11 4 8 8 -3 5 4 16 15 25 10 9 19 13 19 9 0 -4
4 -1 9 7 5 8 17 16 27 17 9 2 20 7 23 12 3 5 23 8 44 8 20 -1 37 1 37 5 0 3
11 4 25 1 14 -2 25 -8 25 -13z m-560 -1449 c0 7 6 8 16 2 9 -5 25 -7 35 -5 11
3 19 0 19 -6 0 -7 5 -9 10 -6 6 4 18 1 27 -7 9 -7 18 -12 19 -11 10 7 34 -11
34 -25 0 -8 3 -13 6 -9 12 12 69 -67 59 -82 -3 -5 -1 -11 5 -13 5 -1 11 -13
13 -25 2 -12 6 -26 10 -29 4 -4 7 -12 7 -18 0 -6 -5 -4 -10 4 -8 12 -10 10 -9
-10 1 -14 -2 -34 -6 -45 -5 -16 -5 -17 4 -5 21 30 10 -1 -14 -40 -14 -22 -25
-47 -25 -56 0 -10 -5 -14 -15 -10 -9 3 -15 0 -15 -9 0 -8 -5 -15 -11 -15 -7 0
-18 -8 -26 -17 -8 -10 -12 -12 -8 -5 3 6 2 12 -3 12 -6 0 -13 -7 -16 -16 -3
-8 -11 -12 -16 -9 -6 4 -17 1 -25 -5 -8 -6 -19 -9 -24 -6 -5 4 -13 2 -16 -4
-4 -7 -11 -7 -18 -2 -7 5 -20 8 -29 7 -9 -2 -22 3 -29 11 -9 12 -15 12 -27 2
-13 -10 -14 -10 -8 0 4 7 2 12 -7 12 -7 0 -23 9 -34 19 -12 11 -24 17 -29 13
-4 -4 -4 -2 -1 4 3 6 -3 18 -14 27 -11 10 -22 31 -26 47 -3 17 -9 30 -13 30
-5 0 -10 23 -12 50 -2 29 1 50 7 50 6 0 4 4 -3 9 -11 7 -11 9 2 14 9 4 16 18
16 32 0 14 6 28 14 31 8 3 12 12 10 19 -3 7 4 16 15 20 12 3 19 11 16 16 -4 5
-1 10 4 10 6 1 16 2 21 3 6 0 15 8 20 16 5 8 12 11 16 7 4 -4 13 1 21 11 8 9
12 11 8 5 -4 -9 -1 -11 9 -7 9 3 13 11 10 16 -4 6 3 5 15 -1 15 -8 21 -8 21
-1z"/>
<path d="M4597 6315 c-9 -8 -18 -11 -21 -6 -4 6 -18 6 -36 1 -21 -6 -30 -5
-30 3 0 8 -3 8 -8 2 -4 -5 -14 -11 -22 -11 -8 -1 -24 -5 -34 -10 -15 -6 -17
-4 -11 7 6 11 5 12 -6 2 -7 -7 -23 -13 -35 -13 -13 0 -25 -4 -28 -9 -3 -4 -18
-6 -32 -3 -20 4 -25 2 -19 -8 6 -9 3 -10 -14 -1 -16 9 -21 9 -21 0 0 -6 -9 -9
-20 -6 -13 3 -18 1 -13 -6 4 -6 0 -8 -10 -4 -10 4 -17 1 -17 -6 0 -8 -4 -6
-10 3 -7 11 -10 11 -10 2 0 -7 -4 -10 -10 -7 -5 3 -10 2 -10 -3 0 -5 -6 -9
-12 -10 -15 -1 -52 -10 -55 -12 -2 -2 -7 -3 -12 -4 -5 0 -12 -4 -16 -8 -4 -4
-13 -4 -21 -1 -8 3 -14 0 -14 -7 0 -6 -4 -8 -10 -5 -5 3 -10 2 -10 -4 0 -5 -9
-8 -20 -6 -11 2 -18 0 -15 -6 4 -5 1 -9 -4 -9 -18 0 -91 -34 -91 -42 0 -5 -5
-8 -11 -8 -5 0 -7 6 -4 13 4 6 1 5 -7 -4 -13 -16 -56 -35 -71 -31 -5 1 -6 -2
-3 -7 3 -5 -8 -14 -24 -20 -17 -5 -30 -15 -30 -21 0 -6 -4 -9 -9 -5 -5 3 -17
-2 -25 -11 -9 -8 -16 -12 -16 -7 0 4 -5 1 -10 -7 -5 -8 -15 -15 -22 -15 -7 -1
-12 -7 -10 -14 1 -7 -2 -10 -7 -7 -5 4 -14 -2 -20 -11 -6 -11 -11 -13 -11 -5
0 10 -3 10 -14 0 -8 -7 -12 -16 -9 -20 2 -5 -5 -8 -16 -8 -11 0 -28 -11 -39
-25 -11 -14 -25 -25 -32 -25 -6 0 -8 -5 -4 -12 5 -8 2 -9 -9 -5 -10 3 -17 2
-17 -4 0 -16 -29 -41 -40 -34 -6 3 -7 -1 -4 -10 4 -9 2 -15 -2 -13 -9 3 -102
-88 -154 -150 -14 -17 -29 -28 -34 -24 -5 3 -6 0 -3 -5 4 -6 -4 -22 -17 -36
-13 -14 -22 -28 -19 -31 3 -2 -5 -10 -17 -16 -12 -6 -19 -14 -16 -17 3 -3 -2
-12 -12 -20 -11 -10 -12 -12 -2 -8 8 3 5 -2 -7 -11 -13 -9 -23 -23 -23 -30 0
-8 -4 -14 -10 -14 -5 0 -10 -7 -10 -15 0 -9 -7 -18 -15 -21 -8 -4 -12 -10 -9
-15 3 -5 0 -9 -5 -9 -6 0 -10 -3 -10 -7 3 -21 -2 -33 -13 -27 -6 4 -8 3 -5 -3
4 -6 -2 -22 -14 -37 -11 -14 -22 -36 -24 -48 -3 -13 -9 -24 -15 -26 -6 -2 -8
-8 -4 -13 3 -5 0 -9 -5 -9 -6 0 -10 -3 -10 -7 3 -21 -2 -44 -9 -39 -5 3 -9 0
-10 -7 -2 -33 -13 -62 -26 -69 -9 -5 -13 -15 -10 -23 4 -9 0 -15 -7 -15 -12 0
-12 -2 0 -9 9 -6 10 -11 2 -15 -6 -4 -9 -12 -6 -17 4 -5 1 -9 -5 -9 -6 0 -10
-6 -9 -12 3 -24 -1 -37 -17 -52 -8 -9 -11 -16 -6 -16 5 0 9 -7 9 -15 0 -8 -4
-15 -10 -15 -5 0 -7 -6 -5 -12 3 -7 -1 -19 -9 -26 -10 -10 -10 -18 -2 -34 8
-15 8 -19 0 -14 -7 5 -11 -3 -11 -19 0 -17 -4 -24 -12 -19 -7 5 -8 3 -3 -7 13
-20 13 -49 2 -42 -6 4 -8 0 -4 -10 4 -10 1 -17 -6 -17 -7 0 -8 -3 -2 -8 13 -9
17 -32 6 -32 -4 0 -7 -11 -6 -25 2 -14 -1 -25 -6 -25 -6 0 -6 -7 0 -18 7 -14
6 -25 -6 -42 -9 -13 -12 -21 -7 -17 6 3 10 -26 10 -78 -1 -46 -4 -81 -7 -79
-5 3 -4 -37 1 -43 7 -9 4 -29 -5 -35 -6 -5 -6 -8 2 -8 7 0 10 -7 6 -17 -4 -9
-2 -14 3 -10 5 3 9 -14 9 -39 0 -24 -4 -44 -10 -44 -5 0 -4 -4 3 -9 7 -4 14
-24 15 -44 1 -21 7 -37 12 -37 6 0 3 -5 -5 -10 -12 -7 -12 -10 -1 -10 7 0 11
-6 8 -15 -4 -8 -2 -17 2 -20 5 -3 7 -14 4 -25 -3 -11 -1 -20 3 -20 5 0 10 -14
11 -31 1 -17 8 -38 15 -47 11 -13 11 -14 -1 -8 -9 6 -8 1 3 -16 9 -14 13 -27
10 -30 -3 -4 0 -17 7 -30 7 -12 12 -29 10 -37 -1 -8 2 -10 11 -5 11 6 11 5 0
-8 -11 -14 -9 -19 10 -32 12 -9 17 -16 11 -16 -6 0 -3 -14 8 -37 10 -21 19
-43 19 -50 0 -7 5 -13 10 -13 6 0 10 -7 10 -16 0 -9 8 -23 18 -31 9 -8 11 -12
5 -8 -9 4 -11 1 -7 -9 3 -9 10 -16 15 -16 5 0 9 -9 9 -20 0 -11 5 -20 11 -20
6 0 8 -7 5 -15 -3 -9 1 -18 9 -21 16 -6 61 -94 56 -109 -1 -5 0 -7 4 -3 9 8
35 -14 28 -24 -2 -5 1 -8 7 -8 6 0 8 -4 5 -10 -3 -5 -1 -10 4 -10 6 0 11 -7
11 -16 0 -8 5 -12 10 -9 6 3 10 0 10 -7 0 -7 12 -24 25 -37 14 -12 22 -28 18
-35 -3 -6 -3 -8 2 -4 7 7 35 -14 35 -27 0 -3 14 -19 30 -35 17 -16 30 -34 30
-40 0 -6 5 -8 10 -5 6 3 10 1 10 -5 0 -15 26 -41 33 -33 4 3 12 -6 18 -20 7
-15 16 -24 20 -21 5 3 9 -2 9 -11 0 -9 5 -13 10 -10 6 3 10 -1 10 -10 0 -9 5
-13 10 -10 6 3 10 1 10 -5 0 -6 5 -8 10 -5 6 3 10 -1 10 -10 0 -9 4 -14 9 -10
5 3 13 -4 16 -16 5 -15 10 -18 15 -9 5 8 9 7 14 -5 3 -10 11 -13 18 -9 7 4 10
4 6 -1 -8 -9 15 -35 31 -35 6 0 11 -5 11 -11 0 -5 5 -7 10 -4 6 4 25 -8 42
-27 17 -18 28 -26 24 -18 -5 9 -2 8 7 -2 8 -10 24 -19 35 -21 12 -2 25 -7 29
-12 5 -4 1 -4 -7 0 -13 8 -13 7 -1 -9 10 -12 16 -13 21 -6 5 8 9 6 14 -5 3 -9
10 -13 16 -10 5 3 10 2 10 -2 0 -5 9 -14 21 -21 17 -11 20 -11 13 0 -4 7 2 5
13 -5 19 -16 37 -23 66 -26 5 -1 5 -6 1 -13 -4 -6 -3 -8 4 -4 6 3 13 2 17 -4
4 -6 11 -8 16 -5 5 4 9 1 9 -4 0 -6 9 -11 20 -11 11 0 20 -4 20 -8 0 -4 12 -9
28 -10 15 -1 29 -7 30 -12 2 -6 8 -8 13 -4 5 3 9 0 9 -5 0 -6 5 -11 11 -11 5
0 7 4 4 10 -3 6 1 7 9 4 9 -3 16 -9 16 -13 0 -4 6 -8 13 -9 27 -1 60 -12 73
-23 11 -9 14 -8 14 1 0 9 7 7 22 -6 12 -10 18 -13 13 -5 -6 10 -4 12 6 5 16
-10 35 -14 66 -16 13 0 20 -5 17 -10 -4 -6 4 -5 16 2 13 7 20 8 16 2 -4 -6 3
-11 16 -11 13 0 33 -1 46 -1 12 0 22 -4 22 -8 0 -5 7 -9 15 -9 8 0 15 5 15 10
0 6 5 6 13 -1 6 -5 22 -8 35 -6 12 2 22 -1 22 -7 0 -8 4 -8 13 0 8 6 17 8 20
5 11 -12 88 -13 81 -2 -5 7 -2 8 6 3 19 -12 83 -13 99 -1 11 8 13 8 7 -1 -4
-8 -1 -13 9 -13 10 0 14 5 9 12 -5 10 -4 10 5 2 15 -14 73 -6 64 10 -5 8 -3 8
8 0 15 -12 53 -11 83 2 15 6 17 4 11 -7 -8 -12 -6 -12 8 0 9 7 24 11 32 7 11
-4 14 -2 9 6 -5 7 0 9 14 6 11 -3 31 1 43 10 16 11 20 11 14 2 -6 -10 -4 -12
11 -5 10 4 29 8 41 8 12 1 19 5 16 10 -3 4 1 7 8 6 29 -4 98 14 92 24 -3 6 -1
7 6 3 6 -4 17 -3 24 2 7 5 20 8 30 7 9 -2 17 0 17 5 0 4 7 11 16 14 10 4 13 2
8 -7 -4 -6 2 -3 14 7 12 11 22 16 22 11 0 -4 6 -2 13 4 8 6 17 8 20 4 4 -3 7
-1 7 6 0 7 6 11 14 8 28 -11 24 19 -5 39 -16 10 -29 22 -29 27 0 4 -7 7 -16 7
-8 0 -12 5 -9 10 3 6 -1 10 -9 10 -8 0 -20 8 -25 18 -6 9 -11 13 -11 8 0 -5
-12 4 -26 20 -15 16 -23 23 -20 17 5 -9 2 -11 -8 -7 -9 3 -13 11 -9 18 4 6 -2
4 -12 -4 -11 -9 -16 -10 -11 -2 10 17 0 15 -31 -5 -21 -14 -25 -15 -18 -3 7
12 6 13 -7 3 -8 -7 -18 -10 -21 -6 -4 3 -7 1 -7 -6 0 -8 -7 -11 -15 -7 -8 3
-15 1 -15 -4 0 -5 -9 -7 -20 -5 -11 2 -22 -1 -26 -6 -4 -6 -10 -6 -19 1 -10 8
-15 8 -21 -1 -5 -8 -3 -9 6 -4 8 5 11 4 7 -2 -3 -5 -16 -9 -29 -8 -13 1 -29
-3 -37 -9 -12 -9 -13 -8 -6 4 8 13 7 13 -8 1 -9 -7 -17 -10 -17 -6 0 4 -8 1
-17 -6 -11 -10 -14 -10 -9 -1 4 6 2 12 -3 12 -6 0 -11 -4 -11 -9 0 -5 -15 -7
-32 -6 -18 2 -39 -2 -47 -9 -12 -9 -13 -8 -6 4 6 12 5 13 -5 3 -11 -10 -17
-10 -29 0 -12 9 -13 9 -7 -1 6 -9 -4 -11 -44 -7 -40 4 -50 2 -44 -7 6 -10 5
-11 -8 -1 -8 7 -18 10 -21 6 -4 -3 -13 0 -21 6 -10 8 -16 9 -21 1 -3 -5 -18
-7 -32 -4 -20 6 -24 4 -18 -7 6 -11 5 -11 -5 -2 -7 6 -19 9 -28 6 -10 -4 -13
-2 -8 5 5 8 -9 11 -48 9 -33 -2 -52 1 -49 7 4 5 -1 7 -9 3 -9 -3 -21 0 -28 6
-10 9 -11 9 -6 0 5 -9 2 -11 -8 -7 -9 3 -13 11 -9 18 4 7 2 7 -7 -1 -10 -9
-19 -9 -43 3 -18 10 -26 11 -22 4 5 -8 0 -8 -16 1 -13 7 -32 12 -43 10 -10 -1
-15 2 -12 8 4 6 -3 8 -18 5 -13 -2 -29 2 -36 11 -10 12 -16 13 -26 4 -10 -8
-14 -8 -14 0 0 6 -7 11 -16 11 -9 0 -30 10 -47 22 -17 12 -27 15 -22 7 7 -10
2 -9 -18 4 -15 9 -27 14 -27 10 0 -5 -4 -3 -8 4 -4 6 -16 13 -27 15 -11 1 -23
7 -27 12 -3 5 -16 10 -27 11 -12 1 -27 9 -34 19 -7 9 -22 18 -35 19 -12 0 -22
7 -22 14 0 7 -11 15 -25 19 -14 3 -25 10 -25 15 0 5 -7 9 -15 9 -8 0 -24 9
-35 20 -11 11 -24 20 -30 20 -5 0 -10 5 -10 10 0 6 -7 10 -15 10 -8 0 -15 5
-15 10 0 6 -7 10 -16 10 -8 0 -12 5 -9 10 3 6 0 10 -8 10 -8 0 -17 7 -21 15
-3 8 -12 15 -19 15 -8 0 -22 9 -32 20 -10 11 -15 20 -12 20 4 0 -3 11 -15 25
-12 14 -27 25 -34 25 -7 0 -16 10 -19 21 -6 17 -9 19 -16 8 -6 -10 -9 -8 -9 9
0 16 -6 22 -22 22 -17 0 -19 3 -10 9 11 7 10 9 -3 15 -9 3 -13 11 -9 17 4 7 3
9 -3 6 -6 -4 -17 1 -24 10 -12 14 -12 16 0 8 10 -5 12 -4 7 3 -4 7 -13 12 -21
12 -16 0 -28 27 -18 43 4 6 0 8 -10 4 -12 -5 -19 1 -23 18 -3 14 -10 25 -15
25 -5 0 -9 6 -9 13 0 7 -11 24 -24 39 -14 14 -22 29 -19 32 4 3 1 6 -6 6 -7 0
-9 5 -6 10 3 6 1 10 -5 10 -6 0 -8 5 -5 10 3 6 3 10 -2 10 -4 0 -17 13 -28 28
-18 26 -18 26 0 12 13 -10 10 -3 -7 20 -15 19 -28 40 -30 45 -2 6 -6 9 -9 8
-3 -1 -5 9 -3 22 1 14 -2 25 -7 25 -5 0 -9 7 -9 15 0 8 -4 15 -8 15 -4 0 -9 9
-10 20 -1 11 -3 29 -4 39 -1 11 -6 17 -10 15 -7 -4 -10 16 -7 42 0 3 -8 12
-18 20 -11 8 -13 13 -5 14 9 0 8 7 -4 25 -12 19 -13 25 -3 25 8 0 5 6 -7 15
-11 8 -14 14 -6 15 9 0 7 8 -5 27 -10 15 -13 24 -6 20 8 -5 8 1 -2 20 -11 21
-12 29 -2 35 12 8 2 12 -18 8 -5 -1 -5 4 2 11 7 7 9 20 4 33 -4 11 -9 43 -10
71 -1 27 -8 53 -14 57 -8 5 -8 8 -1 8 6 0 11 7 11 15 0 8 -5 15 -10 15 -5 0
-5 5 1 13 7 8 7 18 2 27 -5 8 -5 21 0 30 5 9 5 22 0 30 -5 9 -5 19 2 27 7 9 7
13 -2 13 -10 0 -10 3 0 15 10 12 10 15 0 15 -10 0 -10 3 0 15 10 12 10 15 -1
15 -12 0 -12 2 0 9 8 5 11 16 8 25 -4 9 -1 16 6 16 8 0 8 3 -2 9 -9 6 -10 11
-2 15 6 4 9 11 7 15 -3 4 -1 13 4 21 5 8 5 22 -1 32 -6 11 -6 18 -1 18 6 0 12
9 15 20 3 12 1 18 -5 14 -5 -3 -2 8 7 26 12 23 13 30 3 24 -10 -6 -11 -5 -1 7
7 9 15 26 17 40 3 13 5 24 6 24 1 0 4 11 7 25 2 14 6 32 8 40 2 8 4 19 4 23 1
5 5 6 10 3 4 -3 7 6 5 19 -1 14 3 25 9 25 5 0 7 3 4 7 -4 3 1 15 10 26 10 11
13 17 6 14 -8 -5 -7 1 2 20 7 16 15 35 17 43 2 8 8 18 13 22 6 4 10 12 10 17
0 16 78 162 97 182 9 9 19 15 22 12 3 -3 3 6 0 21 -3 21 -1 24 12 19 12 -4 15
-3 10 5 -4 7 -1 15 8 18 9 3 16 11 16 18 0 6 9 19 20 29 12 10 18 21 16 26 -3
5 4 11 15 14 12 3 18 10 14 16 -3 6 -2 11 4 11 5 0 12 9 16 19 4 12 12 18 21
14 7 -3 14 0 14 7 0 13 186 195 200 195 5 0 25 15 60 47 10 9 21 14 24 11 3
-3 8 2 12 11 3 9 12 16 20 16 8 0 14 4 14 10 0 5 3 9 8 8 16 -3 41 15 35 26
-4 6 2 4 12 -4 10 -8 16 -10 12 -4 -6 11 5 21 26 22 5 0 14 8 21 18 7 9 18 14
24 10 7 -4 12 -3 12 3 0 10 38 27 53 23 4 -1 7 2 7 8 0 6 9 10 19 10 10 0 22
7 25 16 5 13 9 14 21 4 12 -10 16 -9 20 2 3 8 12 15 20 16 8 1 22 3 30 4 8 1
15 5 15 10 0 5 5 6 10 3 6 -4 16 -2 23 3 15 11 66 26 90 25 9 0 17 3 17 6 0 6
21 10 73 12 9 0 17 4 17 9 0 5 9 7 20 5 11 -2 20 0 20 4 0 5 12 7 27 5 15 -1
35 2 45 7 13 7 18 6 18 -2 0 -9 3 -9 14 0 10 9 16 9 21 1 5 -8 11 -8 20 0 8 7
19 9 25 5 5 -3 10 -1 10 6 0 8 4 8 15 -1 12 -10 15 -10 15 1 0 11 2 11 10 -1
5 -8 10 -10 10 -4 0 8 11 9 35 4 19 -4 35 -5 35 -1 0 8 126 -2 136 -11 3 -4
15 -3 25 3 11 6 19 6 19 0 0 -5 16 -8 36 -7 19 1 40 -4 46 -11 7 -9 15 -10 29
-2 14 7 19 6 19 -2 0 -6 6 -9 14 -6 8 3 17 1 20 -6 3 -8 5 -8 5 2 1 11 6 10
25 -3 14 -8 38 -17 55 -18 17 -1 31 -6 31 -10 0 -4 7 -4 17 -1 10 4 14 2 10
-4 -3 -5 3 -9 16 -8 12 1 31 -4 43 -12 11 -7 24 -10 27 -6 4 3 7 1 7 -6 0 -7
4 -10 9 -6 5 3 15 0 23 -7 7 -7 19 -14 26 -15 6 -2 18 -4 25 -5 6 -2 14 -5 17
-8 3 -3 16 -11 29 -18 19 -11 22 -11 16 0 -6 10 -5 10 5 1 10 -9 16 -8 27 3 8
8 19 12 24 9 5 -4 6 2 2 11 -4 11 -2 15 4 11 6 -4 22 3 36 16 56 49 78 66 85
66 3 0 8 4 10 10 2 6 -2 11 -9 11 -7 0 -9 3 -6 7 4 3 -1 12 -11 19 -13 9 -19
9 -24 1 -5 -8 -8 -6 -8 6 0 10 -8 17 -20 17 -11 0 -20 4 -20 10 0 5 -3 10 -7
9 -16 -2 -53 14 -53 23 0 5 -4 6 -10 3 -5 -3 -10 -1 -10 6 0 7 -3 10 -6 6 -4
-3 -19 0 -34 8 -15 8 -30 11 -34 8 -3 -4 -6 -1 -6 6 0 8 -7 11 -15 7 -8 -3
-15 -2 -15 2 0 4 -14 13 -30 19 -17 6 -28 7 -24 2 3 -5 -11 0 -31 11 -20 11
-33 15 -29 8 5 -9 2 -8 -10 1 -9 8 -29 15 -44 16 -15 1 -35 6 -44 9 -9 4 -22
8 -30 10 -7 1 -19 6 -27 10 -10 7 -12 5 -6 -5 6 -11 5 -12 -6 -1 -7 6 -28 12
-47 12 -19 0 -31 4 -27 10 4 7 -3 7 -20 0 -34 -13 -38 -13 -29 1 4 7 1 10 -7
7 -8 -3 -22 -1 -31 4 -12 6 -18 5 -18 -3 0 -8 -4 -8 -15 1 -10 8 -15 9 -15 1
0 -7 -8 -8 -27 0 -36 14 -73 17 -95 6 -12 -5 -18 -4 -18 5 0 8 -3 9 -8 3 -4
-5 -14 -10 -22 -10 -8 0 -18 5 -22 10 -5 6 -8 5 -8 -3 0 -9 -5 -10 -19 -2 -14
7 -22 7 -26 0 -5 -8 -11 -8 -20 0 -9 8 -17 7 -28 -5z"/>
</g>
</svg>
